<mxfile host="app.diagrams.net" modified="2023-06-18T19:23:35.287Z" agent="Mozilla/5.0 (Macintosh; Intel Mac OS X 10_15_7) AppleWebKit/605.1.15 (KHTML, like Gecko) Version/16.4 Safari/605.1.15" etag="WMS7S3fJDaLxWMjYSlid" version="21.5.0" type="device">
  <diagram name="Page-1" id="nq9vJH6jLarSkVaHtsb_">
    <mxGraphModel dx="629" dy="346" grid="1" gridSize="10" guides="1" tooltips="1" connect="1" arrows="1" fold="1" page="1" pageScale="1" pageWidth="827" pageHeight="1169" math="0" shadow="0">
      <root>
        <mxCell id="0" />
        <mxCell id="1" parent="0" />
        <mxCell id="vynyGJWhzB-QuEw9XtDQ-34" value="" style="rounded=1;whiteSpace=wrap;html=1;dashed=1;fillColor=none;" parent="1" vertex="1">
          <mxGeometry x="190" y="64" width="500" height="270" as="geometry" />
        </mxCell>
        <mxCell id="vynyGJWhzB-QuEw9XtDQ-1" value="" style="rounded=0;whiteSpace=wrap;html=1;fillColor=#f5f5f5;fontColor=#333333;strokeColor=#666666;" parent="1" vertex="1">
          <mxGeometry x="230" y="210" width="120" height="90" as="geometry" />
        </mxCell>
        <mxCell id="vynyGJWhzB-QuEw9XtDQ-3" value="Ubuntu 22.04" style="text;html=1;strokeColor=none;fillColor=none;align=center;verticalAlign=middle;whiteSpace=wrap;rounded=0;" parent="1" vertex="1">
          <mxGeometry x="258" y="274" width="80" height="30" as="geometry" />
        </mxCell>
        <mxCell id="vynyGJWhzB-QuEw9XtDQ-4" value="" style="endArrow=none;html=1;rounded=0;entryX=1;entryY=0.75;entryDx=0;entryDy=0;exitX=0;exitY=0.75;exitDx=0;exitDy=0;" parent="1" source="vynyGJWhzB-QuEw9XtDQ-1" target="vynyGJWhzB-QuEw9XtDQ-1" edge="1">
          <mxGeometry width="50" height="50" relative="1" as="geometry">
            <mxPoint x="460" y="480" as="sourcePoint" />
            <mxPoint x="510" y="430" as="targetPoint" />
          </mxGeometry>
        </mxCell>
        <mxCell id="vynyGJWhzB-QuEw9XtDQ-5" value="" style="rounded=0;whiteSpace=wrap;html=1;fillColor=#f5f5f5;fontColor=#333333;strokeColor=#666666;" parent="1" vertex="1">
          <mxGeometry x="380" y="210" width="120" height="90" as="geometry" />
        </mxCell>
        <mxCell id="vynyGJWhzB-QuEw9XtDQ-7" value="" style="endArrow=none;html=1;rounded=0;entryX=1;entryY=0.75;entryDx=0;entryDy=0;exitX=0;exitY=0.75;exitDx=0;exitDy=0;" parent="1" source="vynyGJWhzB-QuEw9XtDQ-5" target="vynyGJWhzB-QuEw9XtDQ-5" edge="1">
          <mxGeometry width="50" height="50" relative="1" as="geometry">
            <mxPoint x="610" y="480" as="sourcePoint" />
            <mxPoint x="660" y="430" as="targetPoint" />
          </mxGeometry>
        </mxCell>
        <mxCell id="vynyGJWhzB-QuEw9XtDQ-8" value="" style="rounded=0;whiteSpace=wrap;html=1;fillColor=#f5f5f5;fontColor=#333333;strokeColor=#666666;" parent="1" vertex="1">
          <mxGeometry x="530" y="210" width="120" height="90" as="geometry" />
        </mxCell>
        <mxCell id="vynyGJWhzB-QuEw9XtDQ-10" value="" style="endArrow=none;html=1;rounded=0;entryX=1;entryY=0.75;entryDx=0;entryDy=0;exitX=0;exitY=0.75;exitDx=0;exitDy=0;" parent="1" source="vynyGJWhzB-QuEw9XtDQ-8" target="vynyGJWhzB-QuEw9XtDQ-8" edge="1">
          <mxGeometry width="50" height="50" relative="1" as="geometry">
            <mxPoint x="760" y="480" as="sourcePoint" />
            <mxPoint x="810" y="430" as="targetPoint" />
          </mxGeometry>
        </mxCell>
        <mxCell id="vynyGJWhzB-QuEw9XtDQ-12" value="K8s Master" style="text;html=1;strokeColor=none;fillColor=none;align=center;verticalAlign=middle;whiteSpace=wrap;rounded=0;" parent="1" vertex="1">
          <mxGeometry x="274" y="230" width="60" height="30" as="geometry" />
        </mxCell>
        <mxCell id="vynyGJWhzB-QuEw9XtDQ-13" value="K8s Worker" style="text;html=1;strokeColor=none;fillColor=none;align=center;verticalAlign=middle;whiteSpace=wrap;rounded=0;" parent="1" vertex="1">
          <mxGeometry x="426" y="230" width="60" height="30" as="geometry" />
        </mxCell>
        <mxCell id="vynyGJWhzB-QuEw9XtDQ-14" value="K8s Worker" style="text;html=1;strokeColor=none;fillColor=none;align=center;verticalAlign=middle;whiteSpace=wrap;rounded=0;" parent="1" vertex="1">
          <mxGeometry x="577.5" y="230" width="60" height="30" as="geometry" />
        </mxCell>
        <mxCell id="vynyGJWhzB-QuEw9XtDQ-15" value="" style="rounded=0;whiteSpace=wrap;html=1;" parent="1" vertex="1">
          <mxGeometry x="230" y="160" width="420" height="40" as="geometry" />
        </mxCell>
        <mxCell id="vynyGJWhzB-QuEw9XtDQ-16" value="&lt;font style=&quot;font-size: 13px;&quot;&gt;Kubernetes&lt;/font&gt;" style="text;html=1;strokeColor=none;fillColor=none;align=center;verticalAlign=middle;whiteSpace=wrap;rounded=0;" parent="1" vertex="1">
          <mxGeometry x="406" y="165" width="100" height="30" as="geometry" />
        </mxCell>
        <mxCell id="vynyGJWhzB-QuEw9XtDQ-18" value="" style="shape=image;verticalLabelPosition=bottom;labelBackgroundColor=default;verticalAlign=top;aspect=fixed;imageAspect=0;image=data:image/png,iVBORw0KGgoAAAANSUhEUgAAAOQAAADdCAMAAACc/C7aAAAAilBMVEUybOX///8tauUlZuQqaOQjZeQfY+QZYeQOXuNUgOhWgugMXeMXYOPy9f38/f/b4/no7fuZsPCCn+2tv/LH0/bM1/dskOqyw/O6yfT2+P7s8Px4mOza4vm/zfVAdOads/ClufGSq+9fh+mKpe5Keud8m+xukesAWeM6ceaMp+5dhukAUuIAVeJIeOdBQz5tAAATmUlEQVR4nO1daXusLBI1Cmi39r6n9yVJ587k//+96U2loEAKNXeembe+3RsbOQLFoTaCt/8DCf52B35D/gHZuLwvz/NOZ/697P3qa38T5LSbCsbCkEUiPc1+8cW/B3K5i1lQCEsu01979W+BXAQiDICE8XX5Sy//HZCHSAS6hCKY/MrrfwFkfy84AvEhIjr02+9B6yB7x8wI8S5cjFZt96FlkO/nNLJBfMDMvlveUVoFOVynrAriXaJ0/N5mP1oEOZhXj2IJcz1sryetgZydEqdRzIWl801bfWkJ5LSTkSA+YCbdlmhQKyC3P3SIT5jt0KAWQC6ucVgNCJcw3rVAgxoHOQn9IT5gimDRdJ+aBdnfc+vO7yaCHRrtVaMgVyM7uXEXLvZNsr3mQPbOifO26AAzOzZHg5oCOfxw3/ndpEEa1AzIwWfTEO/CmqJBTYDcnNwoqg/M+aCBDtYHOevS+BsRZvKnPg2qC3J68SM3BJhZbRpUD+SyBrlxlzDbbf8ayIlmnGoNZj0a5A2yjxunWhPB/I1eniBXI7Nxqi3xp0FeIHvfiTdEEcfev73RIC+jlwfI97H/zs/CyWBwYN4KOUrPHjSIDHK4rkFu2OUx4VY7f4XF0g8yDSKC3MxrkZv4RbrfkxqNROknkQaRQM7+1CM37Jy3tK7XTnoiGb0IIKeduvxNFHv6oqZuZlmHwPacQW53We2dXxQd29beY1n240yDHEHqnrd6IKdx/dbC+OpIg5xAHlgz5EYUTHvZSINh7EaDqkHaPG9E4UWX9o01yR1oUBXIVYXnjSTROG+2nnYFwuNK358d5MrB80aQ8JI3fG2w1dvG+W2HaQU5adL+dheRt1yHDCASZVYVZAP5mTXblSBIXl/8vfGWsw8/kKfmz4vZi49tGthBFBFzH5DrFg6M+UZZnwvoEp+NUIwglw0vm4eIl8tq0saJOzUSPSPIVg7++UZ5aMesQAXZTjf4y101asHefpuwJhVrAtlGJ27TddImyPCHBnLTxopseU3ediiDzcAAsqVFw17N99r5htwwXw0g563Y/kVhthg0v1EGMjd2AtnKQLKwfEH9EzgmVwrIYcPTiUUiS1lHol7znziJedQw1AT3TuMg65pgZGEii0+j7UA79vVmi/FPKpoEGuP+LxzkuCkVfxvB+cRmQFzNjruEN4UzOhJANnPcYyL+cHEtDg+Xhs50YccdZC9t4IUs/eMeXDUcsUbcgKk7yCpbmkN3eHImWvO3Tj5rZn93jBqdUZBH2+RhGbuIis8eZT4x15UGepZd5zvrp8jJsQPIjqWdqHPXI7Mfi/5l6dHTkbjp2EwG8fw+OYZdyxAw9OiMgrQsSdZ9PTM2Tunks0aQ0TYwnqfTfJRsYyCwRjGQNuNEVuwHI/yj86BmSMooxZdCWngFbP1DOToG0sbOWfnYN/bN0+96EG8yvKANS+TbwsdQjo6B/LRMh538nPYxItZIHPlIXy/ZSPq7ZeGiHB0DaeN0ifzgSXlSnBoK4NyoDvdYniBWFy7G0RGQVnYOpwNEme7N3R5uR59Mos9D9rmfmhVUvwtazoAlzmpXwDg6AtLuceKgkbnUl8RE4VbLD5aIiKXSOK9SxuPkep6axn4sfeoELHS71QLj6AhIOzsPA6C/1rmmCznOw/vL0+2k8XgEcK7nsrsdUdaGb3MoFiacIVO79R3j6AjIq53NhAmYsS8lwUJ07g3GiSiWV6SDvP8yZiP0GLh9tZwCCvxdwasxjq6DrGbn4iLr0FmYZpwFWD83J+AUAzpB1ixR+oF9olkaxCLryjNnySpPuom+AHSQ02oTfpjM5U713g4RgnGgJDLBbwxDeaJ0jJDdWQqn8mbn4F5AOLoO0skmyhKLJn1I/0ON+GEn+e9d9a9ZVZ7ErUWX0xjC0XWQ6tsNInbWiKGl0L4VW8sPnLTXVLS45W4Ha4Sj6yBdbVihZVvszxEVCMkI4lAP05GpwdvzzrY1Xg2S4DqMT1pzTxmgEYJQuaMblegYjqG9nbtpTefoGkiK7Ty6qL9+yALXzxyMPH4wZxwlv/2IYOzWOboG0sbONcmwY9W3YWIJEHNjCnJJsTirCcVpq3N0DSTJ4opZG9amDsEvbPT5pEib3ySvhcbRVZBDWsiC0IZyEJmUoABjtDSBFDttXU5onUrVTVsFSYwHY8iqNOlB+EEMFkFMw/aJsSIaR1dBnmlW3hSjY9sYnV2QiszQrxkF2F45pblmNI6ugqQFTgt8Y+t1MQQZ6D/qvEsM0Tg0T6LG0RWQK5rtPHwzyAFhYBkYdWTxM2GKYCU6bRPl5wpIfBKZJDb7AQZXTbEkQKH0NJCia04LPZKUvsrRFZCkiAVjIMJDxuqkgH6KlTI4IbZ1FNInfXx1Z1NAOrLzp2R2l9WUw8YUuy/8Bvxqd52QghhUjq6ApChr+0DeZHWCygX+FdrAzDFjL6ENpQ0kKbBPURMoHZP0j/pNpJYijtFD2CAp1lnh6BAkKb4GqtbFv7Bw8GF5eii8KC+5FPizOWayG/8LqA91DVtF4egQJIWdw0PFbfYlR6SrpeFJ5c35qZklaPTNXDC43VFc/Mq7IEiKboUM8T6bYnD0z2XGnq1mynyePJcGv2Aap9/hqmIjBYlBjg5AUtg51GD9R485eorufybh3YWg/n9HhHdXJvaT3vX+YZRVTCFjcAQASAo7h2rn8Pxl9IOe7LeXJEAI4P4nWKNmneHLsgCPq5RdBHJ0APJMWJIZ6Fb+QxY0UOVhk4drsT/yf1NS9SBHByAJE4J9yj8sz02hqF39YFvShBSs1wuhe0CVyyAp7FwA2irbF9OaVQEOUi/ggFC2SsAhZZAUdg5WNvQspLWKBh3BpGTynwYEvQg4ugySwM5D2eOshuLZzKdVoliIYqB6CIMAOLoM8o+73mHAY6haw62ZKFb5o8zICLyHwFWAzpBBEmYD2ED62lrWN0UnWf3oKOS/UzYRmaNLjVDYOWDAyFqOLh7RA++BjhG8yLeHEkiKBTeWO4etZXYlV38aYLFsgGpT1D+X1L8EkpDTGIJtSHdQ3VFyYgDhFEUAqbY7RvBDCSSB7sBXG2ZASqIFW3yUIH+lWO0kjl6CpLBzoKCNeYJcX5eDzeAmG32Qh1+GRoDl7ZtwTJJ28hKkNzs3cgihHaNnX/Fdsi9tkI3dz+QPQlIbJfMqQVLYOdijjVH5TDXc9ArtyNTTinEiCpklUlISJUpYgqQc18DnNVJKrrqidwUSphq5jSMJ1CtlD5FeUYAk2c6BMdw4Bb6UY9enBIQrxhDjmozkL0XyuZWruQBJsp2DWBnD1hN9KfaOPRgGNdV6muIh32DOk3KhS45egNxT7DtA5SGMkonkelTGcaCMlTrOq0MnFUhTMg+mmeyKLaAAie7oJgFmAVVn3BCeJvom0Vc6GGtP3CMNeaZkwgCmrbZhlfKXBUiS38gIkvEsMEU+woM9M3D4zf4CBtQfZOmXyEFSDqSm6RrF6elgJnNQgWqqt5Teci3iPIWrBsiCo+cgSfEViOJhPAnNwasPgZtcbI/H34xeAwriuEhrsuToOUhaxZFMPmKco0gk3UMlU4XWNiSYUZHngHJv7Voy7BwkLfMVnPKO8XjrlM8jr8kQj3NSZTO6yrYBYmxKztEDn08EzUTOB8fRVxnf++VcO1oecWI5jTwe/QWSWKfCkIxZJfmdE1Hiea+EZzdfICnsPJBLJBGl951x32KJb4U3wlWiEQD5Q4ps4Zl/hc7VceSfPLI0Z3JhktvRnyBpkS1ZVdRyi3Lw2c+fIAnsnPHUkM3/OzL+IuS0vxTkE2SllyFkURTxex79ad/atR5uMlyML3ESx5xHldVFXxz9CdLOzlmcXNbj79FiOiBpjOF06aaFe5PDYkNqujeYLg6j709mz/h+ccInSOtET9bkjMjh9PBxSbJYxIa8HyDLL855nLD5cUmDen+TKYT4NZSPhx4grey8IiRJkffZYXzJEpEvnDCr7HZx0GSRiNPgBlUvvGARK0F4UrMHSFtki3B1xPVmk3FXZELRC3gqtSzKHv2Aep2PnKHazIxPN+oDpJWdO73n3OX30UPaYZW6GDXU3auFJNdPp83KlmY+LkBanmJo2IoqI3PuvOXc+BKLxVhURqPdxWZXv+YgbREHOsjZsRvNN32gjCxJbEnljjMzvx7GDGyH2yC9fmg3dNr2hocd/Q7SSnuBQ/ttus7i26RkcfZvoDaNEx66pHExWnxh9Mfw39m9o5FIuwtZm1lD1B+26TtIa4EIXvrGN2MhJUMCn/nANJQuVN6o92AcT8lYbqxrXur8D2v39y+Qdl9R8kSzWlwy0BqMHzRNmcxBRZqGQjlYg9IyLA6e5qSeMQ/l+dz6BbJj54I8Go/Ol1QtmgPPlIah1Nwhb8vxWAsaNRz0YJL0TP0UPGPzj8pyISc3kHd9jnBiJTwYD1rQfJSdLIoy1RqJfyEldhRb9qySvRYgPUubQdX3jnVU8+ucH+tKqGUl0Goe8AN51ggqpisx4aX4Pdzm98jaUHMghq+epop1FtPvEZzpVu1olod+vIP0LWWt5EQhOwHIR5fmjJatik1F8AA1lSmXYgvxrRalfOuh1kykhGaVcbmJcrDRA0iUQqYjz/prjwIOD1pHcvbILUDH1EE9D6iZXKU3RI2611Y0hx9w5TmQT8L2AGkhVg5NlDKH46FOyq30EdTkIEX5qdl8nmrjpbxcLAOWNhRiegXtqHmy4KdKmpeyC8IKI8hKcJPXKDxB6olTbqLOuh5QYUpGKjSaqudMwGfU7ZWUeCRJ1JdA3itQeEmsdHUgTXyFtvaVFauYDGQCq8YFLz3HIJ9o+Zl471mLVNUtm/JrKX4rdVkpullyPabKel15bnGFCbw4+M89GYHKaYptQklA0RmRwgiK5BYVoy8jE0UHpDgez6bUMOU82DGB60rvqaJ885mu5eAv/CarpKBLkD3fCasaLN+DR+YKHOINsugV3fzYRZlQLQnemrVc85Kdylf5CNUc0b8X/IfpBuhJRzkv3tkl32l5JRU1kEwiK2jZGEdzphTCdAvHKA1hSugWbTqGM5MHiW4289zCQZYbsDh6XkcQ6cVhNjAS3xiNCx46IiUx0AqA1QJZIXwNEujuIkK3rfbBtDM5TwXYZt9197Pv5IIKAYLsee5Isb24ojntOrabgJZ+aiJksFnFQI4pQRfJrPkuZvNxZLUeG0K2K0VlhaoXYOJ5IMksY4laRvL+WLL0PMdRZxOaq+PD83Qam30eNsaCV519iKF2UaVoFiSkRtbFk/Eb75dZnRJDsfOQxWnHFOwy8pxT0R+tKR3kyrfQe/Rj6m9/eryksYhYXhY6ZA8H3eV7avRerj0JWBi4FOczm/yrhOkliORml6OPPzsu4ljw3Z/1aLmxaNbexfdTY6V6MfejJyMO6iUVyjJFQpgde4DVdEB9rGP/a207Tdxcf/YuNh8fsfZwR7KtPrVdWOIfrPWSjV7lxlUiPBwaB7mqcSeKQKsjOEvPrWIkKiHpvhB/5RNQE9G0N5sSRBwko93hU+PuMKbvUyTpeg+kMS/eGNxx9r+prR5Ib4yGqmQ2kN62TisdrRbvm3WQU201yL7LjRmYlB706cE1QHlb0ghfpmNQOnaQvhYkKaXvKtIukuujSH/6IbKyH5REUEkyy/yxLSC/41xRbX1yp/r3rK3z1tiB1WzfTePobkDMjTJ+F4uZryysAPl29FA+/Pj6cXlbBBNZND8uZkOZrL5vtvv1LhV5SbSwqMxDq1H3lNga92VXhSf61MkdxMpkZxGPk5QHl06327lc2T1OlMO7agqFRX9p9GlC4ACSrnyKIlGGEKLwdsoK8UYLU8iWOmERoygBJFmhF7l0eqmMaik8RFRbq2bepoE0lDgw9zN/3cJnOXvqHqvScQH5NqL0tszhJVSEKaS0lpJIZWWV+GqQFJ9eSTr8AkpKrvTp/lJeHZHrQDTdPS5liQhaOmbx+2JM+s4gWVVFSzeQzhl5UoUIQs0uSSQ3l/Oa5g7M0eXI4OrTK2OofMOfpBgvxzWtxp94g3QMKJDir3wD2SSnplvBLjdji9vhz0kPSFU6SGXxJZHs6U6pktytGJfjCdcloKCM8vW/vLecrw53s6BV2GuAdAkoKHWj52kpkKubuUxX7pj05GqrcFE++bG1zrW5RdyLw9Rxtpg5G2QcfL7Rc4W8+5oUHsKeKB0oiFoipQGQLgEF/LIdzI41r2BOxtPZ5Fo9kGqxm0ZAugQUhCLW7+6hSiSEw3W/WihYMyB77dyn7ilaAapmQHoHFLQhJDM9yRLsG1DQvCTutyNTQXoHFDQtbimHniC9AwqaFaq7hQhy1dSl6nUkDIk1J6jemTo+vaZEzQ9qHOTb4q8rHzQsoFmQNQIKmhE9FqkFkDUCCpoQQ1hA0yDrBBTUFiwWqQ2Qf1X5oNeGtwGyRkBBXfErl+/n4PcMmq4t5rCAFkC+df8KKbDEjbYB0jugoI7YwgLaAOmdklJHbGEBrYD0jg/3F/87Ovwji46esSi+Yg8LaAmkT0BBDbHEIrUJ8u03lU9VWEBrIIk1OmtJXCeWrVa03yb5pbEMs1rhpfVCGofhr6zLqnsb2wV5v5m+dZis+t7GdkHeBvMjfSR8UIS5C4+zcb1hbALkPcpx9NntyAL/pUnXWU7rPbn6ISINgPzvl39A/q/IfwBQRh/0sIBNRgAAAABJRU5ErkJggg==;" parent="1" vertex="1">
          <mxGeometry x="380" y="165" width="30.95" height="30" as="geometry" />
        </mxCell>
        <mxCell id="vynyGJWhzB-QuEw9XtDQ-35" value="LRZ OpenStack Cloud" style="text;html=1;strokeColor=none;fillColor=none;align=center;verticalAlign=middle;whiteSpace=wrap;rounded=0;" parent="1" vertex="1">
          <mxGeometry x="256" y="64" width="130" height="30" as="geometry" />
        </mxCell>
        <mxCell id="9vqfH6kv8rONww9QLbSJ-10" value="" style="rounded=0;whiteSpace=wrap;html=1;" parent="1" vertex="1">
          <mxGeometry x="450" y="110" width="200" height="40" as="geometry" />
        </mxCell>
        <mxCell id="9vqfH6kv8rONww9QLbSJ-11" value="&lt;font style=&quot;font-size: 13px;&quot;&gt;FaaS Platform&lt;/font&gt;" style="text;html=1;strokeColor=none;fillColor=none;align=center;verticalAlign=middle;whiteSpace=wrap;rounded=0;" parent="1" vertex="1">
          <mxGeometry x="494" y="116" width="100" height="20" as="geometry" />
        </mxCell>
        <mxCell id="9vqfH6kv8rONww9QLbSJ-13" value="&lt;font style=&quot;font-size: 10px;&quot;&gt;(OpenFaaS or Fission or Nuclio or Knative)&lt;/font&gt;" style="text;html=1;strokeColor=none;fillColor=none;align=center;verticalAlign=middle;whiteSpace=wrap;rounded=0;" parent="1" vertex="1">
          <mxGeometry x="450" y="128" width="200" height="20" as="geometry" />
        </mxCell>
        <mxCell id="9vqfH6kv8rONww9QLbSJ-14" value="" style="rounded=0;whiteSpace=wrap;html=1;" parent="1" vertex="1">
          <mxGeometry x="230" y="110" width="200" height="40" as="geometry" />
        </mxCell>
        <mxCell id="9vqfH6kv8rONww9QLbSJ-16" value="&lt;font style=&quot;font-size: 13px;&quot;&gt;Other Services&lt;/font&gt;" style="text;html=1;strokeColor=none;fillColor=none;align=center;verticalAlign=middle;whiteSpace=wrap;rounded=0;" parent="1" vertex="1">
          <mxGeometry x="274" y="117" width="100" height="20" as="geometry" />
        </mxCell>
        <mxCell id="9vqfH6kv8rONww9QLbSJ-17" value="&lt;font style=&quot;font-size: 10px;&quot;&gt;(e.g. Nginx, Kourier or Metrics Server)&lt;/font&gt;" style="text;html=1;strokeColor=none;fillColor=none;align=center;verticalAlign=middle;whiteSpace=wrap;rounded=0;" parent="1" vertex="1">
          <mxGeometry x="230" y="129" width="200" height="20" as="geometry" />
        </mxCell>
        <mxCell id="pzvto6b-sJFYM6gdtuie-2" value="" style="shape=image;verticalLabelPosition=bottom;labelBackgroundColor=default;verticalAlign=top;aspect=fixed;imageAspect=0;image=data:image/png,iVBORw0KGgoAAAANSUhEUgAAAOEAAADhCAMAAAAJbSJIAAAAkFBMVEX////0dCHzaQDzagDzZwD0chz0bQD0cBT0cRj+8+/0bxD0bQf++PT0bg3/+/j+8+34qID84NL1fjX97eX6wqf3onb3m235t5f84dP70b35u530eCj2klz6xqz4sY72lmL1g0D96N382sr4p336xav6y7T71cL1h0j3n3H2jFH4q4f1hkb1gDn0ei74so72kFc+AHJsAAAOVklEQVR4nO1deXeqPhOuZIGC4IZYte61LtVfv/+3e0Vor0gmZEKi9j0+59x/2l5lSDLLM5OZl5cnnnjiiSeeeOKJJ544I2otlsPJaN/ub5Mk2fbb+9FkuFy0ons/mAFEb5P9e5cRh3Ae+r6bwfdDzk8/Y933/eTtz8oZdeLkSAn3PdaAwDyfE3pM4s5fEzNaTucBCVxYtoKc7ulv59Pln5GyF79zEqoJdyFmSPh7vLj3w1ejN+o6gYeU7gde4IwHDy1kFM9pgF2866Wkh1Hz3oIA6Gzrivcr5Gx5b2HKiOKu4xoQL4PrdCf3lqiIXtsxsnz/wDiftu4t1i96CfGNipchJP3HkLHXp+a2ZxE+XfXuLd5Lc2Xw+AlkdFZ3VqwxDy3KlyLkozvK9znmluVLwcefd5KvOaNm9ScERmd32aofxOYBLMIltzePrQ25mXwpyO7GlmNNdL1rXXhkfUP5osS5sXwpnORmAeSbZ8OFqYbvvd1GwPhGKrQMRuNbCHiXHfoDJ7EuX6tr24mRI+xa1qkL/9Y69Bqeb5XmGN7tCP4Do0N7Asb03uKdYU/fDG4goOcHnPMKLpIO7Ag4ta5EWcB3+3g4XA82JJD9ofOfDQHb1gUMxvFvDNEbcZlj77QtCGjb02ZkWvjCZiL7RmJcROtblPHO9XdKFZszFT2mPgbWtygXcE5DqYhG1Y19M0GFLPdItlFNGg3puzSCENhz7zJ1Y870v9m3gxz46p5Uv1FDDlyPW3fVApAx7MsWkYVmCOOxfV+UgAFDR7qI3tiEgDP7AT37gr9ezsj6s/oCDm7Aqfl7+Pt38nCN1LYZy1uEE4FE77crtpDYzKij6Rs9hIwx7/Tv+sdcQhT+V8EpML8eHz4zw2un9SQOpfw433xv5kdOqXNZi8IljHaVhA231lH8MOCseYHDN6t4ubjUl63FMl5teF62EUrSS+3Kd+x86AvYqysg8wmfxWBdV/QWnzeJu4WfYV59TIi+VdzUo518Z9yu1AOpSWdd8NeRgir3NroCxnUMBePhqhQPib4kDeYd0P0aqmQoiaYP3qyxR5lzUMyHnT1PH4xnK8xhDkdPn9bQo2ynbqXOB40CbltHzRzr6dPPGrbeRXAM63QRvXfxL4+K5pjqJMIbdWy9g8gSnT17sfe1VU0hMA0XfKRXhJA7LBj1tj6fdyo4t1N1VYev2GjqCcg33UxEB5GxzQJ5WgrztxhdzrHKZqUTM7HTU66zx2IN9e9qZnXS/KuwtTsHVJYrRNKLWt6M66YGMHdCAgQtvXBY9oJ2w3wlmusdNgnk4DwbKXkAINicH+8tfzmQARChQ/LjS/h8Nd335wG+EkLm+pXR07AU5OcbttkGdzHp2gX7ORXM9X3FCvgrUMwibvFL+C9Z8porCKritP0gSmqnJjGLKOfwhKAX2nqQ6WF2QEh48jAOTmFn4r1+mM8qYY/O1TsFa5azc9hSrc8ZJ6Gb8gBu6LAEba9CCd1ThErEUgQtWr9hpmyYhy3xaQ4Hybz7NeuPTjt8jVYGRPX7RtLspADOtUORRwSil4oQeoQ1WTCxfAVVd/cHpOSNLPLXf2Gjep+j/lf3OGbjY/erP/pUUXwIr+0MdlQTcIl8daHALOQukZuFDM3JtkGzI8ZSvo25IaGN7aTS0UqQCsFRC9oSnKnw5oLPaOYbPWUzhzPOBRaOuZzPqrJHc5xGVbPBTeQBD4Q6OmdA2HzkSdyT0+/kV4BaSJVAVfzvGPehEOecH2ZWUTjCAr6XKR9kHC5jz3+hQN9dfiRkg9TTAaEve6w96oWzebWAOJdUwgPO1I8Q6UocvC7qjStEGDhjKMnCThERJpNUOS1Qr1zBJKJeGRx2Nnc4p4vsQB3RxpgMyabKgQp9GYOURK+BjU7cBrS/onKySoLKbYrSpGD5/JtG6p9xiJ9bY1ybSm36jjCx4I5YOjqxHgM9EszJgZjXH0SY0+MANOybbjrAAVTqJ4p0k/v2S8RnQbanRnUKlKHB2Ggi9033CBVPxEvYrEGWs4ZYow4RL96Xl/Qd1J8OOoW7OolxF+DKESdRTp5gmG4uVlrSYjuFTxWvQIx5MJn3jTmG4hOtmA6DQYU2A6MBpQdxpO4+ANwdlh8oAYjTEfym1HFDeMtizV4rMZ6BC11UBPHgydKl6kV64oSdZsaqCPE5qvto+QOqHyJxKRrKSYYgducRdkwS6MtLHQsgok3aNFPlJ+SuEUpQ+GwZPtTdbmFR7wBLtIoRChNz6gdAUkSmvhPEp9lUJaov+nB1LSgp5oQDC+Zzh57w2x0pEAROGN9KCiIiGdXjOkl4AflGjDTawzSybC0H85wcFNwFQNiaikcU7ZCFsr2A4/wIENBvXG7szi5bqlIJixFTkUFkMCL1MwBSDy3xLiPXRHJ8fpuMX6m8tUEJReTBTtkigolEceQquH3TOcviXm13ndw/ALcveLyqeuiLR4b4EGEoXU4svfz411esQ60iqiKEbom6qgEiV/E2A2riPtKXUbxE0DJZ8y4q5FC3+WDduMjgQ8HWOQdaiHRQZEoVRKugrkw5VBc9KHuVAcRFn5noQlkoOnMsg4gTjNQzIdBTC44yAZ3YdBELsZy6IlCA0C1RlhB0asq1bJJQ63xoLwlmtWpeRXi76PUakbKu9lfAQ5fVfQAX+p9rbi7dK1xWrlJEWobyfxYamxRlpoBICmHT318SBrgsmFWA1VHlBL4szZFKdBnn1GZozAFM5yelkySrL0x35eWRNmjw6wKW8P9+DQXnUJJ9Tn9/eQ4RdLltgOdQoEvhZNyf1KWrkoQYe/ht1B5+C+yh8he4kD3E+zSXIQAmbVWJmj4NVF4g8kshhjzzSy/fFbLSSA5LfqkotgiARfy2HFsIsivqsQXoiiHiw8n5stKfiw/FMb5oxbM+Eld5fIOdCYQJKAMxvjJPs7TO04iUIYKngSq1IK5tdkXOjc4ryPhr8ceoshc5hIU66uEZyLVBfKlbKB5czv8uXwoHQHzcXqbvJXobzPNqIFrWV4/PeUvzFoQW8xaC/I7dvIV6YkySt3iU3FMo+nD1a8mS3NMEkaMT/X+BU6QDcUslI/nDB8kBOyJVWPfZ8iesm8fXunl6DZt5fAQTIS57eX30Woz69TSaN8AvIa6n6Riqp8HURInj6EeviULVtQk3U/26NuHewPhLMnIJ9UHAq6rZOQuoTcSkfeQ38zH1pUz8ERsb9aWIcv2Ky7mYayBApf6rZM5a5dMBNcKYsKWiRthEnfeCGK/zxnCxFXXeqFp9oYP8gtLsRUC1+iiXvqJWH3ffAjKt2FuoOcD7Fhh+pOq+BfLODESJdzSulDBoBVFF3tV3ZtTjzBQ+tCMWGveeIHIFEdw3VK7noZwSyd21DY4gJptb3V3DOG4NqLI+ezDEKrJy+51f4Drgytr35bjHHVLelWTTcdlzlQYnyHvA0D5F3AMWRxM52rh7wJJer7/A3uUG+OXfu9xV8pG2zI+0cZfbzH380U8Hl5ErmXx1+t1A2nLFyn18bK89cU+F3ITlPRWIsKcCqe6pcLDRUwHfF0MQU/eLfTHW/TElge/lfTE8PyB03F9XvvCZnb4Y+N4mJVZK0NuktYz331+HMRsfvr738VKlH9DeUm8TnJd0FuRB+tMAFwYFQNNJVy0BtXsMRctB8j2fz9rpoO4PNCEC9a4v4659orzzOXW8GbouABo/IACQSJThj/X6+lGFGDi/Z+71p+kepl+bgYGYPlQnJIJWz70fo5GXx+F67nkXPfdcPaYH1XNPZxEb4fy8S35iAZ2+iS4JN/396r2r0TcRtYSavS89nvqoOr0vad77MvnMta9G70vcEupmkWhbq39p5tPxeSHK73RRyhSs7Qa/VS/FEsz1e9CW3IM+ZiOhe9DesI9w5h+IJv8gZjDpTH5+hF7QfdWNijkUvxjWaMlurJ+3KoUBNZKRo05P9o36KKavu/Vk//VNtEQkx1jN7b5nX/3asxHaKofxHKpJZiOoPIPubIT68y1o979KIe8630Knn3ARLCTudg13rVust+lLBGvrX2zPKHmZGJgz43LKvvcfy+Jj9JYf+29Gs0GVstoChTkztSbLGxrYlVJPDuXH3XeK3ZGns4L+jRauNSuo5tgus/OeTtF7ilJSvta8J7fmxPXa1SMqqDWzCxNnC1Gzs5US6sxd0/BHr/F/PzvvNvMPQX0vL7rUGb4iQC942BmWogG0OnjcOaSIGE0OfId7LKCm//JZsggeoQoj+/OAhQGe1PenBtToP9ifq84F3qs0AWx6bDU20YUG46XcnzQ14ygPs1DFyrrlJ0WG9TWR7Rvzs9VP7pP1jRqM499YvTeVpP9PK2hBwFucRRbw3WA9/FzvD0TqcDsIQh2DwQ28cC/khPCKiEbSwb0m7A+RV4LJsfHXGNZO8tUHMzc0XoSFb7KvgA4839DIeAito5n7aboIj4i0pCakZso2HExiWRujux1GZlPHXKLj2g/7RfBdY9FSFaLZPXaqk9Rk1VCY4CsJasLD1h/VRWtzAw7uAmRjX4deYyJ1jc3CvfUCZmjWHzupBkYTzfxgbXyOzTWKgMHHWilsQ4i5bRcnVC8atYPmito0jr6zutcG/Yden9pSOT7tG6J8a6K3JTbWMSQPIl+K1p7oDwgSgnE+vb0FlCGKu47BLkpOF+6cej90ttTIQjJOt7XTnpYQfWxozUQVC5yNYq3RndAbHZxA1yv3Auc4ehztAqI3eucEXeHAfMLf4z8gXoZoOZ0HJFCcAs/c09/Op8uH3pwCRJ04OVLCfUnlPfN8TugxSa/I/FFEb+vp7NDgDuE89H03g++HnBOHNw6z6frtzwp3idZiOZyM9u3+NkmSbb+9H02Gy8VjWfQnnnjiiSeeeOKJJ+6J/wGZwQwW65rEHgAAAABJRU5ErkJggg==;" vertex="1" parent="1">
          <mxGeometry x="243" y="280" width="17" height="17" as="geometry" />
        </mxCell>
        <mxCell id="pzvto6b-sJFYM6gdtuie-4" value="Ubuntu 22.04" style="text;html=1;strokeColor=none;fillColor=none;align=center;verticalAlign=middle;whiteSpace=wrap;rounded=0;" vertex="1" parent="1">
          <mxGeometry x="407.5" y="274" width="80" height="30" as="geometry" />
        </mxCell>
        <mxCell id="pzvto6b-sJFYM6gdtuie-5" value="" style="shape=image;verticalLabelPosition=bottom;labelBackgroundColor=default;verticalAlign=top;aspect=fixed;imageAspect=0;image=data:image/png,iVBORw0KGgoAAAANSUhEUgAAAOEAAADhCAMAAAAJbSJIAAAAkFBMVEX////0dCHzaQDzagDzZwD0chz0bQD0cBT0cRj+8+/0bxD0bQf++PT0bg3/+/j+8+34qID84NL1fjX97eX6wqf3onb3m235t5f84dP70b35u530eCj2klz6xqz4sY72lmL1g0D96N382sr4p336xav6y7T71cL1h0j3n3H2jFH4q4f1hkb1gDn0ei74so72kFc+AHJsAAAOVklEQVR4nO1deXeqPhOuZIGC4IZYte61LtVfv/+3e0Vor0gmZEKi9j0+59x/2l5lSDLLM5OZl5cnnnjiiSeeeOKJJ544I2otlsPJaN/ub5Mk2fbb+9FkuFy0ons/mAFEb5P9e5cRh3Ae+r6bwfdDzk8/Y933/eTtz8oZdeLkSAn3PdaAwDyfE3pM4s5fEzNaTucBCVxYtoKc7ulv59Pln5GyF79zEqoJdyFmSPh7vLj3w1ejN+o6gYeU7gde4IwHDy1kFM9pgF2866Wkh1Hz3oIA6Gzrivcr5Gx5b2HKiOKu4xoQL4PrdCf3lqiIXtsxsnz/wDiftu4t1i96CfGNipchJP3HkLHXp+a2ZxE+XfXuLd5Lc2Xw+AlkdFZ3VqwxDy3KlyLkozvK9znmluVLwcefd5KvOaNm9ScERmd32aofxOYBLMIltzePrQ25mXwpyO7GlmNNdL1rXXhkfUP5osS5sXwpnORmAeSbZ8OFqYbvvd1GwPhGKrQMRuNbCHiXHfoDJ7EuX6tr24mRI+xa1qkL/9Y69Bqeb5XmGN7tCP4Do0N7Asb03uKdYU/fDG4goOcHnPMKLpIO7Ag4ta5EWcB3+3g4XA82JJD9ofOfDQHb1gUMxvFvDNEbcZlj77QtCGjb02ZkWvjCZiL7RmJcROtblPHO9XdKFZszFT2mPgbWtygXcE5DqYhG1Y19M0GFLPdItlFNGg3puzSCENhz7zJ1Y870v9m3gxz46p5Uv1FDDlyPW3fVApAx7MsWkYVmCOOxfV+UgAFDR7qI3tiEgDP7AT37gr9ezsj6s/oCDm7Aqfl7+Pt38nCN1LYZy1uEE4FE77crtpDYzKij6Rs9hIwx7/Tv+sdcQhT+V8EpML8eHz4zw2un9SQOpfw433xv5kdOqXNZi8IljHaVhA231lH8MOCseYHDN6t4ubjUl63FMl5teF62EUrSS+3Kd+x86AvYqysg8wmfxWBdV/QWnzeJu4WfYV59TIi+VdzUo518Z9yu1AOpSWdd8NeRgir3NroCxnUMBePhqhQPib4kDeYd0P0aqmQoiaYP3qyxR5lzUMyHnT1PH4xnK8xhDkdPn9bQo2ynbqXOB40CbltHzRzr6dPPGrbeRXAM63QRvXfxL4+K5pjqJMIbdWy9g8gSnT17sfe1VU0hMA0XfKRXhJA7LBj1tj6fdyo4t1N1VYev2GjqCcg33UxEB5GxzQJ5WgrztxhdzrHKZqUTM7HTU66zx2IN9e9qZnXS/KuwtTsHVJYrRNKLWt6M66YGMHdCAgQtvXBY9oJ2w3wlmusdNgnk4DwbKXkAINicH+8tfzmQARChQ/LjS/h8Nd335wG+EkLm+pXR07AU5OcbttkGdzHp2gX7ORXM9X3FCvgrUMwibvFL+C9Z8porCKritP0gSmqnJjGLKOfwhKAX2nqQ6WF2QEh48jAOTmFn4r1+mM8qYY/O1TsFa5azc9hSrc8ZJ6Gb8gBu6LAEba9CCd1ThErEUgQtWr9hpmyYhy3xaQ4Hybz7NeuPTjt8jVYGRPX7RtLspADOtUORRwSil4oQeoQ1WTCxfAVVd/cHpOSNLPLXf2Gjep+j/lf3OGbjY/erP/pUUXwIr+0MdlQTcIl8daHALOQukZuFDM3JtkGzI8ZSvo25IaGN7aTS0UqQCsFRC9oSnKnw5oLPaOYbPWUzhzPOBRaOuZzPqrJHc5xGVbPBTeQBD4Q6OmdA2HzkSdyT0+/kV4BaSJVAVfzvGPehEOecH2ZWUTjCAr6XKR9kHC5jz3+hQN9dfiRkg9TTAaEve6w96oWzebWAOJdUwgPO1I8Q6UocvC7qjStEGDhjKMnCThERJpNUOS1Qr1zBJKJeGRx2Nnc4p4vsQB3RxpgMyabKgQp9GYOURK+BjU7cBrS/onKySoLKbYrSpGD5/JtG6p9xiJ9bY1ybSm36jjCx4I5YOjqxHgM9EszJgZjXH0SY0+MANOybbjrAAVTqJ4p0k/v2S8RnQbanRnUKlKHB2Ggi9033CBVPxEvYrEGWs4ZYow4RL96Xl/Qd1J8OOoW7OolxF+DKESdRTp5gmG4uVlrSYjuFTxWvQIx5MJn3jTmG4hOtmA6DQYU2A6MBpQdxpO4+ANwdlh8oAYjTEfym1HFDeMtizV4rMZ6BC11UBPHgydKl6kV64oSdZsaqCPE5qvto+QOqHyJxKRrKSYYgducRdkwS6MtLHQsgok3aNFPlJ+SuEUpQ+GwZPtTdbmFR7wBLtIoRChNz6gdAUkSmvhPEp9lUJaov+nB1LSgp5oQDC+Zzh57w2x0pEAROGN9KCiIiGdXjOkl4AflGjDTawzSybC0H85wcFNwFQNiaikcU7ZCFsr2A4/wIENBvXG7szi5bqlIJixFTkUFkMCL1MwBSDy3xLiPXRHJ8fpuMX6m8tUEJReTBTtkigolEceQquH3TOcviXm13ndw/ALcveLyqeuiLR4b4EGEoXU4svfz411esQ60iqiKEbom6qgEiV/E2A2riPtKXUbxE0DJZ8y4q5FC3+WDduMjgQ8HWOQdaiHRQZEoVRKugrkw5VBc9KHuVAcRFn5noQlkoOnMsg4gTjNQzIdBTC44yAZ3YdBELsZy6IlCA0C1RlhB0asq1bJJQ63xoLwlmtWpeRXi76PUakbKu9lfAQ5fVfQAX+p9rbi7dK1xWrlJEWobyfxYamxRlpoBICmHT318SBrgsmFWA1VHlBL4szZFKdBnn1GZozAFM5yelkySrL0x35eWRNmjw6wKW8P9+DQXnUJJ9Tn9/eQ4RdLltgOdQoEvhZNyf1KWrkoQYe/ht1B5+C+yh8he4kD3E+zSXIQAmbVWJmj4NVF4g8kshhjzzSy/fFbLSSA5LfqkotgiARfy2HFsIsivqsQXoiiHiw8n5stKfiw/FMb5oxbM+Eld5fIOdCYQJKAMxvjJPs7TO04iUIYKngSq1IK5tdkXOjc4ryPhr8ceoshc5hIU66uEZyLVBfKlbKB5czv8uXwoHQHzcXqbvJXobzPNqIFrWV4/PeUvzFoQW8xaC/I7dvIV6YkySt3iU3FMo+nD1a8mS3NMEkaMT/X+BU6QDcUslI/nDB8kBOyJVWPfZ8iesm8fXunl6DZt5fAQTIS57eX30Woz69TSaN8AvIa6n6Riqp8HURInj6EeviULVtQk3U/26NuHewPhLMnIJ9UHAq6rZOQuoTcSkfeQ38zH1pUz8ERsb9aWIcv2Ky7mYayBApf6rZM5a5dMBNcKYsKWiRthEnfeCGK/zxnCxFXXeqFp9oYP8gtLsRUC1+iiXvqJWH3ffAjKt2FuoOcD7Fhh+pOq+BfLODESJdzSulDBoBVFF3tV3ZtTjzBQ+tCMWGveeIHIFEdw3VK7noZwSyd21DY4gJptb3V3DOG4NqLI+ezDEKrJy+51f4Drgytr35bjHHVLelWTTcdlzlQYnyHvA0D5F3AMWRxM52rh7wJJer7/A3uUG+OXfu9xV8pG2zI+0cZfbzH380U8Hl5ErmXx1+t1A2nLFyn18bK89cU+F3ITlPRWIsKcCqe6pcLDRUwHfF0MQU/eLfTHW/TElge/lfTE8PyB03F9XvvCZnb4Y+N4mJVZK0NuktYz331+HMRsfvr738VKlH9DeUm8TnJd0FuRB+tMAFwYFQNNJVy0BtXsMRctB8j2fz9rpoO4PNCEC9a4v4659orzzOXW8GbouABo/IACQSJThj/X6+lGFGDi/Z+71p+kepl+bgYGYPlQnJIJWz70fo5GXx+F67nkXPfdcPaYH1XNPZxEb4fy8S35iAZ2+iS4JN/396r2r0TcRtYSavS89nvqoOr0vad77MvnMta9G70vcEupmkWhbq39p5tPxeSHK73RRyhSs7Qa/VS/FEsz1e9CW3IM+ZiOhe9DesI9w5h+IJv8gZjDpTH5+hF7QfdWNijkUvxjWaMlurJ+3KoUBNZKRo05P9o36KKavu/Vk//VNtEQkx1jN7b5nX/3asxHaKofxHKpJZiOoPIPubIT68y1o979KIe8630Knn3ARLCTudg13rVust+lLBGvrX2zPKHmZGJgz43LKvvcfy+Jj9JYf+29Gs0GVstoChTkztSbLGxrYlVJPDuXH3XeK3ZGns4L+jRauNSuo5tgus/OeTtF7ilJSvta8J7fmxPXa1SMqqDWzCxNnC1Gzs5US6sxd0/BHr/F/PzvvNvMPQX0vL7rUGb4iQC942BmWogG0OnjcOaSIGE0OfId7LKCm//JZsggeoQoj+/OAhQGe1PenBtToP9ifq84F3qs0AWx6bDU20YUG46XcnzQ14ygPs1DFyrrlJ0WG9TWR7Rvzs9VP7pP1jRqM499YvTeVpP9PK2hBwFucRRbw3WA9/FzvD0TqcDsIQh2DwQ28cC/khPCKiEbSwb0m7A+RV4LJsfHXGNZO8tUHMzc0XoSFb7KvgA4839DIeAito5n7aboIj4i0pCakZso2HExiWRujux1GZlPHXKLj2g/7RfBdY9FSFaLZPXaqk9Rk1VCY4CsJasLD1h/VRWtzAw7uAmRjX4deYyJ1jc3CvfUCZmjWHzupBkYTzfxgbXyOzTWKgMHHWilsQ4i5bRcnVC8atYPmito0jr6zutcG/Yden9pSOT7tG6J8a6K3JTbWMSQPIl+K1p7oDwgSgnE+vb0FlCGKu47BLkpOF+6cej90ttTIQjJOt7XTnpYQfWxozUQVC5yNYq3RndAbHZxA1yv3Auc4ehztAqI3eucEXeHAfMLf4z8gXoZoOZ0HJFCcAs/c09/Op8uH3pwCRJ04OVLCfUnlPfN8TugxSa/I/FFEb+vp7NDgDuE89H03g++HnBOHNw6z6frtzwp3idZiOZyM9u3+NkmSbb+9H02Gy8VjWfQnnnjiiSeeeOKJJ+6J/wGZwQwW65rEHgAAAABJRU5ErkJggg==;" vertex="1" parent="1">
          <mxGeometry x="392.5" y="280" width="17" height="17" as="geometry" />
        </mxCell>
        <mxCell id="pzvto6b-sJFYM6gdtuie-6" value="Ubuntu 22.04" style="text;html=1;strokeColor=none;fillColor=none;align=center;verticalAlign=middle;whiteSpace=wrap;rounded=0;" vertex="1" parent="1">
          <mxGeometry x="557.5" y="273.5" width="80" height="30" as="geometry" />
        </mxCell>
        <mxCell id="pzvto6b-sJFYM6gdtuie-7" value="" style="shape=image;verticalLabelPosition=bottom;labelBackgroundColor=default;verticalAlign=top;aspect=fixed;imageAspect=0;image=data:image/png,iVBORw0KGgoAAAANSUhEUgAAAOEAAADhCAMAAAAJbSJIAAAAkFBMVEX////0dCHzaQDzagDzZwD0chz0bQD0cBT0cRj+8+/0bxD0bQf++PT0bg3/+/j+8+34qID84NL1fjX97eX6wqf3onb3m235t5f84dP70b35u530eCj2klz6xqz4sY72lmL1g0D96N382sr4p336xav6y7T71cL1h0j3n3H2jFH4q4f1hkb1gDn0ei74so72kFc+AHJsAAAOVklEQVR4nO1deXeqPhOuZIGC4IZYte61LtVfv/+3e0Vor0gmZEKi9j0+59x/2l5lSDLLM5OZl5cnnnjiiSeeeOKJJ544I2otlsPJaN/ub5Mk2fbb+9FkuFy0ons/mAFEb5P9e5cRh3Ae+r6bwfdDzk8/Y933/eTtz8oZdeLkSAn3PdaAwDyfE3pM4s5fEzNaTucBCVxYtoKc7ulv59Pln5GyF79zEqoJdyFmSPh7vLj3w1ejN+o6gYeU7gde4IwHDy1kFM9pgF2866Wkh1Hz3oIA6Gzrivcr5Gx5b2HKiOKu4xoQL4PrdCf3lqiIXtsxsnz/wDiftu4t1i96CfGNipchJP3HkLHXp+a2ZxE+XfXuLd5Lc2Xw+AlkdFZ3VqwxDy3KlyLkozvK9znmluVLwcefd5KvOaNm9ScERmd32aofxOYBLMIltzePrQ25mXwpyO7GlmNNdL1rXXhkfUP5osS5sXwpnORmAeSbZ8OFqYbvvd1GwPhGKrQMRuNbCHiXHfoDJ7EuX6tr24mRI+xa1qkL/9Y69Bqeb5XmGN7tCP4Do0N7Asb03uKdYU/fDG4goOcHnPMKLpIO7Ag4ta5EWcB3+3g4XA82JJD9ofOfDQHb1gUMxvFvDNEbcZlj77QtCGjb02ZkWvjCZiL7RmJcROtblPHO9XdKFZszFT2mPgbWtygXcE5DqYhG1Y19M0GFLPdItlFNGg3puzSCENhz7zJ1Y870v9m3gxz46p5Uv1FDDlyPW3fVApAx7MsWkYVmCOOxfV+UgAFDR7qI3tiEgDP7AT37gr9ezsj6s/oCDm7Aqfl7+Pt38nCN1LYZy1uEE4FE77crtpDYzKij6Rs9hIwx7/Tv+sdcQhT+V8EpML8eHz4zw2un9SQOpfw433xv5kdOqXNZi8IljHaVhA231lH8MOCseYHDN6t4ubjUl63FMl5teF62EUrSS+3Kd+x86AvYqysg8wmfxWBdV/QWnzeJu4WfYV59TIi+VdzUo518Z9yu1AOpSWdd8NeRgir3NroCxnUMBePhqhQPib4kDeYd0P0aqmQoiaYP3qyxR5lzUMyHnT1PH4xnK8xhDkdPn9bQo2ynbqXOB40CbltHzRzr6dPPGrbeRXAM63QRvXfxL4+K5pjqJMIbdWy9g8gSnT17sfe1VU0hMA0XfKRXhJA7LBj1tj6fdyo4t1N1VYev2GjqCcg33UxEB5GxzQJ5WgrztxhdzrHKZqUTM7HTU66zx2IN9e9qZnXS/KuwtTsHVJYrRNKLWt6M66YGMHdCAgQtvXBY9oJ2w3wlmusdNgnk4DwbKXkAINicH+8tfzmQARChQ/LjS/h8Nd335wG+EkLm+pXR07AU5OcbttkGdzHp2gX7ORXM9X3FCvgrUMwibvFL+C9Z8porCKritP0gSmqnJjGLKOfwhKAX2nqQ6WF2QEh48jAOTmFn4r1+mM8qYY/O1TsFa5azc9hSrc8ZJ6Gb8gBu6LAEba9CCd1ThErEUgQtWr9hpmyYhy3xaQ4Hybz7NeuPTjt8jVYGRPX7RtLspADOtUORRwSil4oQeoQ1WTCxfAVVd/cHpOSNLPLXf2Gjep+j/lf3OGbjY/erP/pUUXwIr+0MdlQTcIl8daHALOQukZuFDM3JtkGzI8ZSvo25IaGN7aTS0UqQCsFRC9oSnKnw5oLPaOYbPWUzhzPOBRaOuZzPqrJHc5xGVbPBTeQBD4Q6OmdA2HzkSdyT0+/kV4BaSJVAVfzvGPehEOecH2ZWUTjCAr6XKR9kHC5jz3+hQN9dfiRkg9TTAaEve6w96oWzebWAOJdUwgPO1I8Q6UocvC7qjStEGDhjKMnCThERJpNUOS1Qr1zBJKJeGRx2Nnc4p4vsQB3RxpgMyabKgQp9GYOURK+BjU7cBrS/onKySoLKbYrSpGD5/JtG6p9xiJ9bY1ybSm36jjCx4I5YOjqxHgM9EszJgZjXH0SY0+MANOybbjrAAVTqJ4p0k/v2S8RnQbanRnUKlKHB2Ggi9033CBVPxEvYrEGWs4ZYow4RL96Xl/Qd1J8OOoW7OolxF+DKESdRTp5gmG4uVlrSYjuFTxWvQIx5MJn3jTmG4hOtmA6DQYU2A6MBpQdxpO4+ANwdlh8oAYjTEfym1HFDeMtizV4rMZ6BC11UBPHgydKl6kV64oSdZsaqCPE5qvto+QOqHyJxKRrKSYYgducRdkwS6MtLHQsgok3aNFPlJ+SuEUpQ+GwZPtTdbmFR7wBLtIoRChNz6gdAUkSmvhPEp9lUJaov+nB1LSgp5oQDC+Zzh57w2x0pEAROGN9KCiIiGdXjOkl4AflGjDTawzSybC0H85wcFNwFQNiaikcU7ZCFsr2A4/wIENBvXG7szi5bqlIJixFTkUFkMCL1MwBSDy3xLiPXRHJ8fpuMX6m8tUEJReTBTtkigolEceQquH3TOcviXm13ndw/ALcveLyqeuiLR4b4EGEoXU4svfz411esQ60iqiKEbom6qgEiV/E2A2riPtKXUbxE0DJZ8y4q5FC3+WDduMjgQ8HWOQdaiHRQZEoVRKugrkw5VBc9KHuVAcRFn5noQlkoOnMsg4gTjNQzIdBTC44yAZ3YdBELsZy6IlCA0C1RlhB0asq1bJJQ63xoLwlmtWpeRXi76PUakbKu9lfAQ5fVfQAX+p9rbi7dK1xWrlJEWobyfxYamxRlpoBICmHT318SBrgsmFWA1VHlBL4szZFKdBnn1GZozAFM5yelkySrL0x35eWRNmjw6wKW8P9+DQXnUJJ9Tn9/eQ4RdLltgOdQoEvhZNyf1KWrkoQYe/ht1B5+C+yh8he4kD3E+zSXIQAmbVWJmj4NVF4g8kshhjzzSy/fFbLSSA5LfqkotgiARfy2HFsIsivqsQXoiiHiw8n5stKfiw/FMb5oxbM+Eld5fIOdCYQJKAMxvjJPs7TO04iUIYKngSq1IK5tdkXOjc4ryPhr8ceoshc5hIU66uEZyLVBfKlbKB5czv8uXwoHQHzcXqbvJXobzPNqIFrWV4/PeUvzFoQW8xaC/I7dvIV6YkySt3iU3FMo+nD1a8mS3NMEkaMT/X+BU6QDcUslI/nDB8kBOyJVWPfZ8iesm8fXunl6DZt5fAQTIS57eX30Woz69TSaN8AvIa6n6Riqp8HURInj6EeviULVtQk3U/26NuHewPhLMnIJ9UHAq6rZOQuoTcSkfeQ38zH1pUz8ERsb9aWIcv2Ky7mYayBApf6rZM5a5dMBNcKYsKWiRthEnfeCGK/zxnCxFXXeqFp9oYP8gtLsRUC1+iiXvqJWH3ffAjKt2FuoOcD7Fhh+pOq+BfLODESJdzSulDBoBVFF3tV3ZtTjzBQ+tCMWGveeIHIFEdw3VK7noZwSyd21DY4gJptb3V3DOG4NqLI+ezDEKrJy+51f4Drgytr35bjHHVLelWTTcdlzlQYnyHvA0D5F3AMWRxM52rh7wJJer7/A3uUG+OXfu9xV8pG2zI+0cZfbzH380U8Hl5ErmXx1+t1A2nLFyn18bK89cU+F3ITlPRWIsKcCqe6pcLDRUwHfF0MQU/eLfTHW/TElge/lfTE8PyB03F9XvvCZnb4Y+N4mJVZK0NuktYz331+HMRsfvr738VKlH9DeUm8TnJd0FuRB+tMAFwYFQNNJVy0BtXsMRctB8j2fz9rpoO4PNCEC9a4v4659orzzOXW8GbouABo/IACQSJThj/X6+lGFGDi/Z+71p+kepl+bgYGYPlQnJIJWz70fo5GXx+F67nkXPfdcPaYH1XNPZxEb4fy8S35iAZ2+iS4JN/396r2r0TcRtYSavS89nvqoOr0vad77MvnMta9G70vcEupmkWhbq39p5tPxeSHK73RRyhSs7Qa/VS/FEsz1e9CW3IM+ZiOhe9DesI9w5h+IJv8gZjDpTH5+hF7QfdWNijkUvxjWaMlurJ+3KoUBNZKRo05P9o36KKavu/Vk//VNtEQkx1jN7b5nX/3asxHaKofxHKpJZiOoPIPubIT68y1o979KIe8630Knn3ARLCTudg13rVust+lLBGvrX2zPKHmZGJgz43LKvvcfy+Jj9JYf+29Gs0GVstoChTkztSbLGxrYlVJPDuXH3XeK3ZGns4L+jRauNSuo5tgus/OeTtF7ilJSvta8J7fmxPXa1SMqqDWzCxNnC1Gzs5US6sxd0/BHr/F/PzvvNvMPQX0vL7rUGb4iQC942BmWogG0OnjcOaSIGE0OfId7LKCm//JZsggeoQoj+/OAhQGe1PenBtToP9ifq84F3qs0AWx6bDU20YUG46XcnzQ14ygPs1DFyrrlJ0WG9TWR7Rvzs9VP7pP1jRqM499YvTeVpP9PK2hBwFucRRbw3WA9/FzvD0TqcDsIQh2DwQ28cC/khPCKiEbSwb0m7A+RV4LJsfHXGNZO8tUHMzc0XoSFb7KvgA4839DIeAito5n7aboIj4i0pCakZso2HExiWRujux1GZlPHXKLj2g/7RfBdY9FSFaLZPXaqk9Rk1VCY4CsJasLD1h/VRWtzAw7uAmRjX4deYyJ1jc3CvfUCZmjWHzupBkYTzfxgbXyOzTWKgMHHWilsQ4i5bRcnVC8atYPmito0jr6zutcG/Yden9pSOT7tG6J8a6K3JTbWMSQPIl+K1p7oDwgSgnE+vb0FlCGKu47BLkpOF+6cej90ttTIQjJOt7XTnpYQfWxozUQVC5yNYq3RndAbHZxA1yv3Auc4ehztAqI3eucEXeHAfMLf4z8gXoZoOZ0HJFCcAs/c09/Op8uH3pwCRJ04OVLCfUnlPfN8TugxSa/I/FFEb+vp7NDgDuE89H03g++HnBOHNw6z6frtzwp3idZiOZyM9u3+NkmSbb+9H02Gy8VjWfQnnnjiiSeeeOKJJ+6J/wGZwQwW65rEHgAAAABJRU5ErkJggg==;" vertex="1" parent="1">
          <mxGeometry x="542.5" y="279.5" width="17" height="17" as="geometry" />
        </mxCell>
        <mxCell id="pzvto6b-sJFYM6gdtuie-8" value="" style="shape=image;verticalLabelPosition=bottom;labelBackgroundColor=default;verticalAlign=top;aspect=fixed;imageAspect=0;image=data:image/png,iVBORw0KGgoAAAANSUhEUgAAAIAAAAB8CAYAAAChbripAAAABmJLR0QA/wD/AP+gvaeTAAAgAElEQVR4nO2dd3hUVfrHP+dOS2Ymk0oIRXpTepOOomDZVRQRBbuuZV1dFxVsuJZdyxbX8nNduyI2LOtasFKkCoj0XkIRAgmkkUmmzz2/PyYzmUwmYSaZOwnrfp8Hntxz23vnvOec97wVfkGQUgop5dlSyjellDuklA4pZZGUcpOU8kkpZb/mpvF/0ABSSkVKeaGUco08MZZLKS9sbpr/hwRASmmQUl4jpdweQ8dHYq2UcoqUUjT3d2iJ/8qPk1KagRuBGcApEaddh4751i/b6vLtPeI32cyK95RWiu/sAalZaWalN6BEXL8ReBL4SAihak99cvFfxQBSynTgNuAPQG6tc1A6f51z818/rOhfXuXPiHZ/x9a6g49elbW/byfD6YAp4vQu4K/AO0IIjwbkNwv+KxhASpkD3A7cAWSGn1MlxQs3OLc+9v7xgZVO1RbL87JtSvHMS9O3jh+QOlAIIu8pBJ4FnhdCOBJBf3PipGYAKWVr4E7g94A5/Jxf5dDHyyr3PveZfajbK1Mb8/x0i2K/Z0r6pnMHp54mIhgLKAZeAJ4TQpQ15vktASclA0gpOwPTgZuBlPBzHj8/z5lvP/zK1/YhfhV9It5nMYmq2y5MWztljLWHopAXcdoOvAn8RQhxJBHvSyZOKgaQUvYFZgLToHbnujxy5+vzK4tnf2cfrqrotHi/QS88V4+3rrn5vLR2Bh2dIk67gbeAx4QQB7V4vxY4KRhASjkQuB+4lAia7Q5189P/qXB9sdoxRMrkfI8iUC8ba119x0VpuSaD6Bpx2gN8ADwuhNiZDHqaghbNAFLK0cC9wAWR58qr1K1/fq+cxZtcvZNPWQCKQL1gmHntjEvTzRaTiKRDBb4CHhFCrG0G8mJCi2OAasXLBcADwPCI02phuX/tQ2+VWdfu8ZyafOrqx8hTUzbPuiLdlZehGxrl9ALgISHEymTTdSK0GAaQUirAr4FHgEERp735R3w/znqrrM3uAm+XpBMXB0acatr84BUZrrwM3RDq/r4rgL8KIb5oBtKiotkZQEppBKYCs4AeEafduwp86+97s7TjgSJfm+RT13j06WTc9dAVGce6ttEPhzpC6QbgGQJKpWbVLjYbA0gpLdSoa9vXPkfV2j3utX+cU97raLk/N+oDThJ0yNUdnDU1Y9+Q7qZh1NUubgH+DrwnhPAln7pmYAAppQ24HrgPau+pVSlLF25wbX5ybkX/447o6tqTFe2ydYcfujJjz5DupiFEKK2A/QS0iy8LIVzJpCtpDCClbEWNnr5W56qSY9+tc+56Ym75wCqXjPxx/quQlaaU3DMlfcv4AakDhCA94nQR8BLwtBCiIhn0aM4AUsqOwF0EpvtIde3Bj5dV7nv2c/vpHo9MifqA/1JYTKLytgvT1k0Za+2lCCKXuaCa+f+EEKVa0qEZA0gpuxIwztxCxNrn9sg9r82vLHrrO/uwRKlrT1aYTUrV7Rda104ZY+2uKEQKupXAGwR2Doe1eH/CGaDarWoGcAUR0q/LI3e8+nVlxZyF9qFqkrR2JwuCauabzrO2NepE54jTbuBD4E9CiD2JfG/COkFKOYqAYPfryOcG1bWfr3JEU5I0G7q3M1BQ7MPhls1NSghB7eLMS9OtZpOIVHZ5gbnAk0KI7Yl4X5MZoCF17bHjvo0Pv31cv3qnu9nUtZEw6gW/GprKtDMtdGtroMKh8skKB3OXVHHsuL+5yQtBCOSFw8w/3TXJlppmVvpEnA6qmf8khFjTpPc09kYp5WnAi8DYiFP+g8W+FbNml+dsPeA5rSnEJRJpqQqXjjEz7Qwr2bZIry/w+iXfrnXy9sIq9hz2NgOF9WNc/9Qt912eruakKZFeyxJ4F7hbCHG0Mc9uFANIKScSWJPChTvPjkPelQ/OLuuwr8gXuYY1GzKsCpePtTDtTAtpqXU7PhpW73Tz8pd2Nu5rWZ5fg7sbdz00LaOqfSv9AGr3XSFwthBiW7zPjJsBpJRjgfmAMdhWUOJf9dvnSzocLvG1jfd5WiErTeHKcVamnmEhxdi4iW7jXg+z51eybKsL2XLEBPp3Me54/nfZ/ggL5FFgYLy7hbh+GSllKgEv2e7BpjkLq5Y99+nxyGWg2dA2S8eVZ1m5ZKQZoyExMu6uAi/vLqriq58cqC3EL1gRqG/clb2ibyfTmLDmT4QQk+N5TrwMcB0B9ycAPl/pXPLoe2VnxPMMrdA+R8+1461cNMKMLraZPm4cKvYxd0kV/17hwONt/ilBCOQnD+au6pCrHxHW3EcIsTXmZ8TzQinlN8C5AFVuufXMe4700sr9KlZ0a2vgpvOsnDUgFSXOAV9U7ueHbW5K7H5GnprCqacYEDE8o7DMz5wFlXy60oG7mRkhK00p+e6JPCEgq7rpCSHErFjvj/knqzbblgOpAH/7qGLlB0srRzR8l3bo2kbPtePTOH9IKkqMI15VYWeBl2VbXCzd7GLHIW+ttT3DqjCku4mxfVIY08eEzdzwg8sqVT5aVsW731dR6Wy+teGF27KXDO9lCs7EPwohhsV6bzwMMBwIerQ4Rt51RDTW3bop6NbWwE3nWzmrf3wj3ueXfLTMwdc/Odj+sxe1gYHbOlPH2D4p3HCOldyME09wx6tU3vu+ig+WVmFvBkYY1NW0/dXp2UGlkRfIiDVmIR4GmEHAdk1Zpbp+/P2FA+OmtAnokqfnugnxjfhwrN7p5vnPKhjbN4W+nYxUOlWWb3WzdIuLSpdKz3aGOucyrAp3TooplgQAh1vy+SoHb3xnp6QieYygCNQfn2tbGRbEcqYQYkks98ZjiBkZ/GNDvud4PAQ2BV3b6LnpvDTOHhj/Gh8OKWH7QS/bDwaUPHmZOkb3SeFvv8kkK03H4k1Olm5x8+rX9tDscPHI+CzTZpNg6hkWLhph5t/Lq3h7YRXFFdprF1WJUlKh7s5JVwZXN40CEs4AofV+4QZnWhz3NQodc/Xc8qs0JgxqWsfXh8IyPx8vq2LvES8TBqbyr3n2hD071Si46iwrU8ZY+Hh5FbPnV1Jq13ZGWJfvqTxnUMiiPirW+2JiACllN2q8d9Tl293dG7q+KcjN0HHteCuTR5sx6LQ3GIpYxP5GwmQQXDnOyuRRFj5dqe3SMH+dMz2MAUZKKZVY/A1jXU1DHOX2yHx7VWxBlvHiynFWPvljLlPPsCSl84PQYoYJR4oxsDR8+lBrTmmljfvDqh3u7kDQrzADiMltPm4G2HXYp0n8W1ZaQOBKbaTatrHQuvPDYTYJRpwa6ReaGDjcqsXpluG+AjEtA7EyQEgAXLzJqYni5/SeppiUMI2FoSGq63mvXoNZaFhPbRgAYPtBT7hFMDEMIKWsNZ0s2ujsED9pJ8aIXtr9MACDu5v41+3Z9GxvqNUuBHUYz2wS3PKrNO6OYwsYOx3GRm1jY8H3m9zhH5ewGWBk8DpVcvTno/7IlCsJwVANR0YQw3qaeOeeVvz1hkzaZAWmBAGI6ilArxNcMsrMZw+35ubz0xJmTApHWqrCaR2MJ76wEVi0wRkeNdVVShkZyl4HsUgkIU4qKPbthToerE1G5zw9rWPQuCUCioDxA1MZ3TuFuUuq2PZzwOY/tk8Kd15io4NGQlo4hnQ3smV/4n0NCsv8rf2qPKxTRNAsPwL4T0P3xMUAq3e43U2gr14M7aH96I9EilFw3QQrHl9A63PJqOSFIwzoos0MAHDwmH9/p9b6IAOMoikMIKU0ACFHzvkb3DlNpjAK+nVO/A9SWOZn+VYXPj+M7m2ifU70TzXq607zqoRtBzz8uMtDh1wdI3qlYElJ3HLQv4sRRdCgPaKxWLHN7evUOvStJ5QDTjQDDKQmmMO5ca82CqD+CRgRDVn6/v4xtMvRMaxnwNI3rJepTsdXOFR+3Olm9U43Sze7a6lwFYWQrWBMnxR6tY/NbFwfbGaFznl68o8kPhxw/jpn3pXjLMHDwVJKc0OGoRMxQGj7V16l7vL6ZP8E0FgLOTYdbbOatv473JI5Cyv55icnB49F/1ELiv18Uuxg5XY3Ewamcv051pC5d2+hj9e+sbNimzuqWVdVA3aEnQVeVm53M2WMhfOGNE1FPbCbSRMG2Pqzp5uUVFQbhgzAYGBZfdefiAFCU8jGfV5NMmH172I48UUnwMINTjbt9XDxCDM92hkoLPOzbIuLVTvd+PwyNHr7dDRSWuln2RY3X//k5PKxgZHy0pcVpBoVHrg8nWybwro9ntAskpaqcHpPE8N6mmifo2Pbz17+vaKKgV2NoZ1Eo767s5GPl1U1+dsjoaoopXZ1T7ZNCeZYGEUTGCDMAOSyNHRhY5GI9d/tlayunr4hEPAxureJG861ogjBsq2BZeGVr+2hZSFcH1BeqbJwj4t5PzowGgSDuxmZONzM471M7C/ysXSLi5e/stdaFpq6fg/sqp0guC7fbZ8wMOSq0aAcUC8DVKdiaxc8XL7F2S0x5NWGFgLg7gIvuwu8lFSo2MwK7yyqjPlej1eycrubldvdvHBbNk/MPa6JSbdNlo7WmTqKyhL/7AXrXbZwBmjIMNSQIqjGAOSV+cer1MhEiU2GUS/odUrTlwCtIKirJUwkBmq0Hfxhq6snNYahTKBnfdc2xAAhATD/iDYGoFNPMUTdhiUKTe7AKGriRCIRu59ocHik2emW+WFN9S4DMc0Aize7NPkZ+iZo+q+vk4SI0eetgV7W0liopRyw46CnKOxwZH3XRWWA6jQuoaiTRRucmuj/E7X+6+rbjzUwgsNjB/T1DAMR+i+iXZCQ2IOubQ1YYwxXixeLN7nD5bu4Z4ARVMf2q5LifYW+jgmkLYQ+nRKz/l803Mxfb8iso0+I1vfpFoXfT7RxRY2yhL/ckMl1E6x1lqNoVrveHY28+occ8jKbbrtQBPRN0G8Qie83u8INQ92llFFtOPXtAkIcc6TUlw8kXAWcbVMSZgAS1QaeMX1SeH9xFW/Or6TSqdYy9ZoMgmlnWrh+grXOqLOZA0wxZYyFF+fZ+XKNAymDlsIA8jJ1/O4CG78amppQuaB/ZyMrtyfexFJQ7MtTVQ4rCm0JfMYI4LPI607IAD/u8DoTTh3Qp2Pi1z+TIWDgmTTSzJyFlbg8MsQcf7jYdkKNY16mjkevzuCysWae+U8gR1O6RWHKGAtXjLNoIrD209IwVOw70DG3lmHoxAwgpdQBpweP5693aGIAOq2DNlNfeaXK/iIfN5yThr66v01x2vWD07zXJ3nzrpy4748HfTsFHES0CDr9Yavb2zG3YcNQNBmgP2Ct/tu9Id+jiQFIC6eI8kqVCx4u4jfPFjPz9VJMBtHozhMCjE24P1aYTYLubbUZDPM3OFuHHQ6Wsm4mtmgMEOIUu0PudPtkwo31QkDvjon/6D1HvDg9AR3tmp1uispbTsqXhqCVPmDzfk83KQmqQU0EDEO10CADbNzr1sQA1DZbR7ol8dufb9fWiCuqhPvfLGNfoQ9Vwsrtbl6cZ6fC0fBcW1zh528fHefRd8tZtUMT/5c66K+BOhxAVdGVVqm7w5rqLAPRhMCQ0mDhRpcmwZ+9EzD9e3ySf82zY00VtM/W8/0mFwvW15ZXN+71cOnjtVPn5Bd6eerGLOrD3CWBIE+AH7a5+fbx1vVemyhoKQiu3+OuGD+gfsNQLQaQUnagps6eXL7VFVkNIyFIxPT/7+UO3l5Y28iTlaZw669tDOxqxOGWfLXGwYdLq2pZ7nYdajgB1LHymhmi0pWcAM+2WTpapes0yVK2YL0rLYwBRkophRAi9ItEzsMhDvH45b5Su5qdcIpIjAD4c4TjR7ZNYe59uVwyykznPD29OxqYeWk6T1xXY8MymwR//U0WcxZWctXfjtXZf6sqbA5z1nR5ZJ1QLilh0UYXuwoSm0lMq2Xgh62uHkCQs3KISMkfyQA1BqDDvgItCBKCOr75jcH0i22cP6RmhfrDRelR079NGBRQEAFMGmlhd4GX5z6tYPtBL3e+XMqnPzjw+iWFZX4efqeMA0drM9YTH5RT5QoMGIdb8sDsMma+Vsq1TxWH/A8SgX4JcIyJhiq3tLo89RuGImWA0MllW7QxALXN1iXEwdJkEPzp6kw27/dyqNjH0B71j6ChPYws2+LCnCJqjWivX/Ln98t5/INyVDWg9Dl7QAqt0nX4VDh41McP29yc/8dCerY3sL/IF4ry9fgkby2oTFikj5aewrsKPIX9OpuCI38kgfzDQBgDSCmtQN/g8cL1znZogETueRUFurXVc6jYF3LvjgZP9Wy9eJOL16fn8MN2F+v21Ez1rTN03H6hjXMG1U0+UeWSvPd9JbMXBDSLoXeLxLqS92hvwGQQmuQc+n6jW9+vc4hRa80A4Z87nGqGkFCSX+jrlHBKCGT6SBQ8Psnu6rX4u3XR6yyoKizYENgd7C7w8tvni5l+sS3k0Dmgq5F372kVcPKMsjO1pAhuOj+N16fnkGOrUSVPn2QjTLhqMgw6oYluBGDRRle4Ma9nde0GoDYDhDijqNSXr1UNvkTt/1UJf3yrnIKSgHzz6jf2WqM6eM0/v6hgx8EagW3bz4EsIZYUhY65ep69JSsmmnqdYuCZW7IwGgRmk2DaGdYT3hPv92iFQ8W+dqpK0KlHEFaNLfzLQwLgml1ezYoiv/t9VUKyZRSV+UMjGwK+fLc8X8yj75Yzb3Ug+fMNTxfz1oLAVjE4us0mQVaaDrtT5d4p6TGnj4WA/eKKMy14feBLcI+9/GVdBk4kDhX79ocdhgZ7YMoPlGwLpRb7dr2zfk1JE3G03M+9b5Ty4u3ZTQq/bpOl49zBqXy71knnPD19OxlZs8vN56scfL6qhn875up57NpMerU3sHGfh0PFPv75eQXd2xkY1oiI5CvHWZmzsJJPVjiYekZiHKW/3+ji9e8Sl6ImGn7Y4fZ0iGIYEgBSyv4ESpkBuEfcdUT1aJwCbtqZFmZMjiyZEx/8Kvx81EfnarnC45PMml3Goo018sC797Ri1Q43L8yrqGVxu26Cld9PbFz497X/KGbbAQ/nDUnl1FOM5GYqnNk3pVEMvbfQx7VPHdO8ZsHArsbtr03PCYb5u4F0IYQ7OP+FGYDU3Vp3PsD7i6v45qemuRroFEKdDwEv4xvPS6t13KOdge/WOeuYW9tmN94ZpX22DlXCV2uc/OOT49z7ehlzl8Qf5GF3qtz9SmlSClZs2ufpLiVBIk1UF+eswwBbDnhKNKemGn9+vzwkxScKPdsbOKt/Ch1a6bnyLAuKEl3w1DXBrSfabuFIaXxqXFXCg2+V19FoagW/ir68St0V1jQKavQAIQZYtMmdtFhtl0cy47Uy3p6Zc8K0rPHg7xHGngenZvDNWgclFSqrd7rZX+TjSBMCMiI7WxGBFDfx4KUv7SzfmtQSgWzY664Y16+WYegpvZSyLRDaJy7bUsuZUHMcKvbx4Jxynr0lS7OETe1ydPzm3MDS4PVLbnuhlFU73Nz66/jTHVY6Vbbs99K/i5HbLrSRlxHQbGZYY2fgRRtdvKGx0BcNC9e7rGEMMFpKKRRgdLDF62f/sWYo1bpiayD2Lhkw6ATXT7Cy9YCnUVk6Pl7uwGQUPH1TFoO7GWmXo4ur8/OP+Hj47bJmKUCxdEsdw1A3hbAA0J+LfIeST1YAb3xrZ+mW5EyJGVYFKeEvHx6PS/V64KiPN76zM7ibMa5OD8LuVJnxanKEvmiocsk0t0fuDWsaWWv/v6PA2ywFjKFaszcnOULRh9UOH9sPenlgdlktHX99KCjxc+fLpVS5ApbDeEewKmFWEoW++lBsV8OF/GEKEIr6PVzia9biD5VJGCGvfG2vpShavMnF9U8Xs7YeLZyqwqcrHVzz1LGQqXjnIS/vL45v2/fSl3ZWJFnoi4ZSuxr+oR31QEgSyknTN7sXZf4RH396r5wnr8tMeGCmqsLr39b2IkpLVahwqNz8XDFd8vSc3tNEmywdbq+koNjP8m2uqPl9n/n0OIO7G2PybVi4oXmEvmjITFPCCc7UAyVU5wEY0M3QImK1569z0ruDgavPTqzBRVFg0kgzH1Vn5rhinIXfX2jDaBBsyPdw35u1FTpCwNQzLEwaaUGnwAtfVNTSMsaC/CM+HnmneYS+aMjNUMKdHA/rHnnkkVFUZwLNsCrWOQsrpc9PszPCj7vc9O9irDe7V2Mx8rQU8jJ0TBxu5opxVnTV6tu8LB1pZoUlm2s6+LwhqfxxWgZZaQoZVoXxA1OpdKoUlqrcMyWdkac2XPDc7lS59fkSipNYPKIh9Otk3Dl5lCU8zuN9BfgkeCQg655LM35MPml1oaoBt+6guTdRUESgEMS4/nU7r3Pr2swWmb9QETBjcjrfPt6aC05v2BlElTBrdlmzC33heOy6jPKIprkKgWLEO4MtE4enDO3e3pBPC8DxKpWZr5XGJKUnApaU2lu7VlF8DGPFi/MqWLEtOXEFseDyMZZV7bL14cWk3hVC7FGEEH7gRgLFhhBCWObMyBFpqUrSysI0hJ2HvPz5vUjG1Qad8/TccI6Vwd2MTBppZkgjM5gu3ODizfmx5yXSGj3aG/bNnJIeXoD6KHAXhIXQSynvAJ4LHhcfV9ee/1DhgOauCxjEnZNsXHVWYoVCLbC/yMc1Tx0LeRI3Nywpwj7/ibxjJoMIqvh9wAQhxGII8wgSQvwf8HrwOCddGfy3GzLrzS+XbDz3WQU/tKApNRoqHCrTq5VFLQGKQP1oVu6OsM4HuDPY+VA3LuB2ICQEjuufesa0cdaVtACoKsx6q4yC4mZXVUSFKuHBOeX1ZiptDjx9c/bS1hm6oWFNbwsh/hl+TS0GEEK4gIuBYAVqcfckW79TOxjCAwybDRUOlRmvlYYigFsSXviiokVo+oKYPCp19Zg+oWqiAOuAWyKvqyPmCiGOAJcScBtCCCxv3d0qNTNNlGpFbDzYVeDlsSQJhbHi+42ukPNpS0CPdvq991+eeRo1Ml4RcJEQoo4LVtR9jhBiJTA9eKxTaP/Bfa33KwotYv79Zq0zruyfWmJfoY+HW5CmL92sK58zM1cnREjF7wUuE0JEtfTWu9EVQrwEvBI8zrYpg565KWt5QqltAlqCUFjhULnzlZYl9H3wQM4eg47wQJDfCyGW1ndPg+aW6oIRC4ExwaZnPqlY+c73lfUmHkwm0i1Ks1QbCeLAUV/CfRqbgn/+LmvJiFNTwtf92UKI6xu654T2turCQ2uA9tVNzhufLd6/Pt8TU2HC/yE5mHqGddnMS22jqenTlcA4IUSD0+QJdZ1CiEJgCtVCIZD68h3Ztqw0JWnew/9Dw+jTybhr5qW2QdR0fiEw5USdDzEWjhRCrAJuDh7rFNHuwwdyD+gUWs6m9xeKdItS9tr07FQgGKbkJdD5MeV3iNnaIYSYA7wQPM60KoP+eWvWiniIPVmx6C95zHtU+1xB8UKn4Pv3g7kHDDoRnsv5d0KImIX1eM1ddwKLgwen90o54+bz01qMuviXhpdub7Ui06oMCGv6pxDitXieERcDCCG8BJRE+4Jtt/wqbeiQ7sZt8Tznf2g6rptgXTGouyFc4v8BuDve58Rt8BZClACTgaBnZcqLt+dkZNuU4nif9T80Dv06G3f8fqJtYFjTQWCSECLuQIdG+VsJIdZLKW8B3gZQFNr+e1bu5gmzimxen0xospue7Q28d28r5q128K8v7dxxkY0RvUykGgW7D/t4+av6HS/OG5LKZWMsdG9nQK/AwWI/X//k4N1FVXVSyigCpp5pYfIoC22zdZRVqixc7+LFLysapK9fZyNXn21lQBcjNrOgvEplzS4Pr31jZ39R4mXkHJty7PXpOTZq6jm6gMlCiKMN3FYvmuR3K6V8hjCV8fo97qU3PlcytinPjESQAdbsctO1jYGj5X627PeQZdNxZr+AW9dNzxWzIb828wf9B0oqVOavd+LySMb0SaFrGz3r8z3c+nwJXn8NE8yamsElo8wUlPhZsN6JlDB+YAolFSpd2uipdEoueLio1jsmjTTzwNQMyuwqS7e4KLX7aZet56wBKfhVuPX5klpp55oKvU7xfvt47rYMixJev/E3Qog36r3pRM9sIk0zCDiUngswsJtp7K0XpC17cZ59TMO3xY+hPUy89o2dl76qKf124TAzj1yVwdVnWdmQX2OrGtTNyFVnWTlU7OOap4o5XhVwyvzXvAqeuSWbUaeZuGa8lde/DbhqD+5u4pJRZnYVeLnh6eKQtfHVb+y8Pj2HtFSFSmdtM0jnPD33XZbOym0uZrxWVmtG6fqdntl3t+LBaelc/uSxhP0Gr/4hc2WGRQkfYM80pfOhETJAOKrdya4AQuFGN56bNnzUaSmbmvLcaDhS6uflsLp/AF/+6MDhlnVSz180PDA7vvpNZajzIZBQ4pn/HEdKuGhEjVPnxGGBgMmXv7LXMjW7PJJ/fRndn3/KGAt6nWDOwirSzIJsmxL6F1gG3HRra2hScclw3HBO2op+nU3hnb8IuKepz22yz7UQolRKeQmwgoAywvDsb7PyLnykqLCw1H/C+vWxYuchb50kD6qEY8f9dSqPBIM11u6uKxvsK/RRXOGnXbaOtFQFu1MNXR8tR8/6PdHli2C9o5fvaDiZao5NF3fugEic3jNly20Xpg0JazoATBVCNFnISIjTvRBio5TyGuBjQCiC3Ln3ttpy7qyizESlm49W0xfA56+bsCFYEiZaRA9AcYVKq3Qd1lSB3Rm43q8SNZO4wy2jOqAEk07c/WppgzkKmyoItsrQHX3hd1nZBLJ6ADgJCH0JWVsSFnUhhPhESvkUMBMgzaz0mT0jZ/m0vxwbfYJbE44As+jItilRR19Otbt3pVOGrm+TpcNmVuowgdkkSDUKIl1Qgu8oLPPXSkOXSOh1iveD+1oVKgr9wpp/I4RYm6h3JDpp/33A18GDHu0Mo++YaKvXFq0VdlZnBB/cve7k0zFXT45NR6svp0IAAAQaSURBVEGJH3v1rBK8flC3ujvYQd2iT2BB6T48X3Gi8cb07FXpFiW88/8uhHg/ke9IKANU16e9EtgTbLt2gnXE2D4pGxP5nhPhs+ro35vOs9bKD6RT4K5LbAgBn62siRD+YnXAU+qWX6WRaqzZGacYRb1ZRD5YUoVfDcQORvNJMJsEEwY1njnuuNi2tHcnQ/huagHwQKMfWA8SG3gHCCHKpJQTgVUQqGH/j5uz2k58+OiRI2W+Nol+XzSs2+PhnUWVXHWWlY9n5bJgvRO3VzKqdwpd8gJ6gDlhPnw/7Xbznx8cTBpp5sNZuSzaENADnNU/laPHa2aKcOQf8fH4++XMmpbBi7dns2qHm52HvOgU6NRaz9AeJn4+5mP+uvgzoQ3vadp87dnW8Cie/cC0RAh9kUg4AwAIIbZLKa8lEHcoFEGrj2a12nH2/YUZ7iSkoAN45j+BFLFTxlq4YJgZvQ4OHvPzwhcVvPN9VS0lEMATc8vZV+hj8mgzl59hocyusqBaE1ifJfCzVQ52HPJy5TgrQ7obGdojUKji2HGVeasdfNuIzm+dri96/ndZudQIfZXARCGEJqp2TUtiSSkfA2YFj/MP+1Zc9uTRBuvZ/5JhNArXgify8i0mESzbKwls9z7U6p3aFK6twUPAvOBB17b6UTMuSb5QeLLgjemt1oR1PsCTWnY+aMwA1ULhFUDIXDxtnHXkuH4pG+q/65eJGZNtS049RR8u9H1HYABpCq1nAIQQduASIBhtrP/7TVkdOuTqDmr97pMFI05L2TTtTOuIsKbdwOXVqnZNoTkDAAghdgLXACoEElG8f2+uI8UoNEtLf7KgXbbu8P/9NqstEFRCVBKw7Scl/CkpDAAghPgc+HPwOMUoer49o9UveikwGoXr/ftzyxURqs4ugeuFEFuTRUPSGKAajxKwFwDQpY1+5P2Xpy9JMg0tBrPvyvnJYhKnhTX9SQjxcb03aICkMkB1wcLrgRCHXzraMvr8oeafkklHS8ADUzMX92xnCLeTfA78Kdl0JHsGQAhRSUAoDK5xuj9fk9GlU67+52TT0lwYPyh13eRRqeGdvwO4unrXlFQknQEAhBC7gMupTlwsIOujWbn6XwITjO2TsvEv12X2pEYLaydg3m3Y+VAjaKoJPBGklA8Aj4eOofTVr+3bXvnaPkqrqmXNBZNBOJ+4PnP1mX1TRlIj8asE4vbnNXCrpmhuBhDABwRiD0Pwq/Lw2l2e3Wt2e/SHSnwpqnpyMkOKUfg75+pcI3qniB5tDX2FILJI0h+FEI81C3HVaPYfVkppBD4CJjY3LUnGP4QQM5qbiGaRAcJRHcxwGfAE1bkK/8tRCtzUEjofWsAMEA4pZTcCGsNfA52BzIbvOCkgCYRr7yJgHn9PK9NuY/D/eWutrXjnXkEAAAAASUVORK5CYII=;" vertex="1" parent="1">
          <mxGeometry x="402" y="233.55" width="23.65" height="22.91" as="geometry" />
        </mxCell>
        <mxCell id="pzvto6b-sJFYM6gdtuie-10" value="" style="shape=image;verticalLabelPosition=bottom;labelBackgroundColor=default;verticalAlign=top;aspect=fixed;imageAspect=0;image=data:image/png,iVBORw0KGgoAAAANSUhEUgAAAIAAAAB8CAYAAAChbripAAAABmJLR0QA/wD/AP+gvaeTAAAgAElEQVR4nO2dd3hUVfrHP+dOS2Ymk0oIRXpTepOOomDZVRQRBbuuZV1dFxVsuJZdyxbX8nNduyI2LOtasFKkCoj0XkIRAgmkkUmmzz2/PyYzmUwmYSaZOwnrfp8Hntxz23vnvOec97wVfkGQUgop5dlSyjellDuklA4pZZGUcpOU8kkpZb/mpvF/0ABSSkVKeaGUco08MZZLKS9sbpr/hwRASmmQUl4jpdweQ8dHYq2UcoqUUjT3d2iJ/8qPk1KagRuBGcApEaddh4751i/b6vLtPeI32cyK95RWiu/sAalZaWalN6BEXL8ReBL4SAihak99cvFfxQBSynTgNuAPQG6tc1A6f51z818/rOhfXuXPiHZ/x9a6g49elbW/byfD6YAp4vQu4K/AO0IIjwbkNwv+KxhASpkD3A7cAWSGn1MlxQs3OLc+9v7xgZVO1RbL87JtSvHMS9O3jh+QOlAIIu8pBJ4FnhdCOBJBf3PipGYAKWVr4E7g94A5/Jxf5dDHyyr3PveZfajbK1Mb8/x0i2K/Z0r6pnMHp54mIhgLKAZeAJ4TQpQ15vktASclA0gpOwPTgZuBlPBzHj8/z5lvP/zK1/YhfhV9It5nMYmq2y5MWztljLWHopAXcdoOvAn8RQhxJBHvSyZOKgaQUvYFZgLToHbnujxy5+vzK4tnf2cfrqrotHi/QS88V4+3rrn5vLR2Bh2dIk67gbeAx4QQB7V4vxY4KRhASjkQuB+4lAia7Q5189P/qXB9sdoxRMrkfI8iUC8ba119x0VpuSaD6Bpx2gN8ADwuhNiZDHqaghbNAFLK0cC9wAWR58qr1K1/fq+cxZtcvZNPWQCKQL1gmHntjEvTzRaTiKRDBb4CHhFCrG0G8mJCi2OAasXLBcADwPCI02phuX/tQ2+VWdfu8ZyafOrqx8hTUzbPuiLdlZehGxrl9ALgISHEymTTdSK0GAaQUirAr4FHgEERp735R3w/znqrrM3uAm+XpBMXB0acatr84BUZrrwM3RDq/r4rgL8KIb5oBtKiotkZQEppBKYCs4AeEafduwp86+97s7TjgSJfm+RT13j06WTc9dAVGce6ttEPhzpC6QbgGQJKpWbVLjYbA0gpLdSoa9vXPkfV2j3utX+cU97raLk/N+oDThJ0yNUdnDU1Y9+Q7qZh1NUubgH+DrwnhPAln7pmYAAppQ24HrgPau+pVSlLF25wbX5ybkX/447o6tqTFe2ydYcfujJjz5DupiFEKK2A/QS0iy8LIVzJpCtpDCClbEWNnr5W56qSY9+tc+56Ym75wCqXjPxx/quQlaaU3DMlfcv4AakDhCA94nQR8BLwtBCiIhn0aM4AUsqOwF0EpvtIde3Bj5dV7nv2c/vpHo9MifqA/1JYTKLytgvT1k0Za+2lCCKXuaCa+f+EEKVa0qEZA0gpuxIwztxCxNrn9sg9r82vLHrrO/uwRKlrT1aYTUrV7Rda104ZY+2uKEQKupXAGwR2Doe1eH/CGaDarWoGcAUR0q/LI3e8+nVlxZyF9qFqkrR2JwuCauabzrO2NepE54jTbuBD4E9CiD2JfG/COkFKOYqAYPfryOcG1bWfr3JEU5I0G7q3M1BQ7MPhls1NSghB7eLMS9OtZpOIVHZ5gbnAk0KI7Yl4X5MZoCF17bHjvo0Pv31cv3qnu9nUtZEw6gW/GprKtDMtdGtroMKh8skKB3OXVHHsuL+5yQtBCOSFw8w/3TXJlppmVvpEnA6qmf8khFjTpPc09kYp5WnAi8DYiFP+g8W+FbNml+dsPeA5rSnEJRJpqQqXjjEz7Qwr2bZIry/w+iXfrnXy9sIq9hz2NgOF9WNc/9Qt912eruakKZFeyxJ4F7hbCHG0Mc9uFANIKScSWJPChTvPjkPelQ/OLuuwr8gXuYY1GzKsCpePtTDtTAtpqXU7PhpW73Tz8pd2Nu5rWZ5fg7sbdz00LaOqfSv9AGr3XSFwthBiW7zPjJsBpJRjgfmAMdhWUOJf9dvnSzocLvG1jfd5WiErTeHKcVamnmEhxdi4iW7jXg+z51eybKsL2XLEBPp3Me54/nfZ/ggL5FFgYLy7hbh+GSllKgEv2e7BpjkLq5Y99+nxyGWg2dA2S8eVZ1m5ZKQZoyExMu6uAi/vLqriq58cqC3EL1gRqG/clb2ibyfTmLDmT4QQk+N5TrwMcB0B9ycAPl/pXPLoe2VnxPMMrdA+R8+1461cNMKMLraZPm4cKvYxd0kV/17hwONt/ilBCOQnD+au6pCrHxHW3EcIsTXmZ8TzQinlN8C5AFVuufXMe4700sr9KlZ0a2vgpvOsnDUgFSXOAV9U7ueHbW5K7H5GnprCqacYEDE8o7DMz5wFlXy60oG7mRkhK00p+e6JPCEgq7rpCSHErFjvj/knqzbblgOpAH/7qGLlB0srRzR8l3bo2kbPtePTOH9IKkqMI15VYWeBl2VbXCzd7GLHIW+ttT3DqjCku4mxfVIY08eEzdzwg8sqVT5aVsW731dR6Wy+teGF27KXDO9lCs7EPwohhsV6bzwMMBwIerQ4Rt51RDTW3bop6NbWwE3nWzmrf3wj3ueXfLTMwdc/Odj+sxe1gYHbOlPH2D4p3HCOldyME09wx6tU3vu+ig+WVmFvBkYY1NW0/dXp2UGlkRfIiDVmIR4GmEHAdk1Zpbp+/P2FA+OmtAnokqfnugnxjfhwrN7p5vnPKhjbN4W+nYxUOlWWb3WzdIuLSpdKz3aGOucyrAp3TooplgQAh1vy+SoHb3xnp6QieYygCNQfn2tbGRbEcqYQYkks98ZjiBkZ/GNDvud4PAQ2BV3b6LnpvDTOHhj/Gh8OKWH7QS/bDwaUPHmZOkb3SeFvv8kkK03H4k1Olm5x8+rX9tDscPHI+CzTZpNg6hkWLhph5t/Lq3h7YRXFFdprF1WJUlKh7s5JVwZXN40CEs4AofV+4QZnWhz3NQodc/Xc8qs0JgxqWsfXh8IyPx8vq2LvES8TBqbyr3n2hD071Si46iwrU8ZY+Hh5FbPnV1Jq13ZGWJfvqTxnUMiiPirW+2JiACllN2q8d9Tl293dG7q+KcjN0HHteCuTR5sx6LQ3GIpYxP5GwmQQXDnOyuRRFj5dqe3SMH+dMz2MAUZKKZVY/A1jXU1DHOX2yHx7VWxBlvHiynFWPvljLlPPsCSl84PQYoYJR4oxsDR8+lBrTmmljfvDqh3u7kDQrzADiMltPm4G2HXYp0n8W1ZaQOBKbaTatrHQuvPDYTYJRpwa6ReaGDjcqsXpluG+AjEtA7EyQEgAXLzJqYni5/SeppiUMI2FoSGq63mvXoNZaFhPbRgAYPtBT7hFMDEMIKWsNZ0s2ujsED9pJ8aIXtr9MACDu5v41+3Z9GxvqNUuBHUYz2wS3PKrNO6OYwsYOx3GRm1jY8H3m9zhH5ewGWBk8DpVcvTno/7IlCsJwVANR0YQw3qaeOeeVvz1hkzaZAWmBAGI6ilArxNcMsrMZw+35ubz0xJmTApHWqrCaR2MJ76wEVi0wRkeNdVVShkZyl4HsUgkIU4qKPbthToerE1G5zw9rWPQuCUCioDxA1MZ3TuFuUuq2PZzwOY/tk8Kd15io4NGQlo4hnQ3smV/4n0NCsv8rf2qPKxTRNAsPwL4T0P3xMUAq3e43U2gr14M7aH96I9EilFw3QQrHl9A63PJqOSFIwzoos0MAHDwmH9/p9b6IAOMoikMIKU0ACFHzvkb3DlNpjAK+nVO/A9SWOZn+VYXPj+M7m2ifU70TzXq607zqoRtBzz8uMtDh1wdI3qlYElJ3HLQv4sRRdCgPaKxWLHN7evUOvStJ5QDTjQDDKQmmMO5ca82CqD+CRgRDVn6/v4xtMvRMaxnwNI3rJepTsdXOFR+3Olm9U43Sze7a6lwFYWQrWBMnxR6tY/NbFwfbGaFznl68o8kPhxw/jpn3pXjLMHDwVJKc0OGoRMxQGj7V16l7vL6ZP8E0FgLOTYdbbOatv473JI5Cyv55icnB49F/1ELiv18Uuxg5XY3Ewamcv051pC5d2+hj9e+sbNimzuqWVdVA3aEnQVeVm53M2WMhfOGNE1FPbCbSRMG2Pqzp5uUVFQbhgzAYGBZfdefiAFCU8jGfV5NMmH172I48UUnwMINTjbt9XDxCDM92hkoLPOzbIuLVTvd+PwyNHr7dDRSWuln2RY3X//k5PKxgZHy0pcVpBoVHrg8nWybwro9ntAskpaqcHpPE8N6mmifo2Pbz17+vaKKgV2NoZ1Eo767s5GPl1U1+dsjoaoopXZ1T7ZNCeZYGEUTGCDMAOSyNHRhY5GI9d/tlayunr4hEPAxureJG861ogjBsq2BZeGVr+2hZSFcH1BeqbJwj4t5PzowGgSDuxmZONzM471M7C/ysXSLi5e/stdaFpq6fg/sqp0guC7fbZ8wMOSq0aAcUC8DVKdiaxc8XL7F2S0x5NWGFgLg7gIvuwu8lFSo2MwK7yyqjPlej1eycrubldvdvHBbNk/MPa6JSbdNlo7WmTqKyhL/7AXrXbZwBmjIMNSQIqjGAOSV+cer1MhEiU2GUS/odUrTlwCtIKirJUwkBmq0Hfxhq6snNYahTKBnfdc2xAAhATD/iDYGoFNPMUTdhiUKTe7AKGriRCIRu59ocHik2emW+WFN9S4DMc0Aize7NPkZ+iZo+q+vk4SI0eetgV7W0liopRyw46CnKOxwZH3XRWWA6jQuoaiTRRucmuj/E7X+6+rbjzUwgsNjB/T1DAMR+i+iXZCQ2IOubQ1YYwxXixeLN7nD5bu4Z4ARVMf2q5LifYW+jgmkLYQ+nRKz/l803Mxfb8iso0+I1vfpFoXfT7RxRY2yhL/ckMl1E6x1lqNoVrveHY28+occ8jKbbrtQBPRN0G8Qie83u8INQ92llFFtOPXtAkIcc6TUlw8kXAWcbVMSZgAS1QaeMX1SeH9xFW/Or6TSqdYy9ZoMgmlnWrh+grXOqLOZA0wxZYyFF+fZ+XKNAymDlsIA8jJ1/O4CG78amppQuaB/ZyMrtyfexFJQ7MtTVQ4rCm0JfMYI4LPI607IAD/u8DoTTh3Qp2Pi1z+TIWDgmTTSzJyFlbg8MsQcf7jYdkKNY16mjkevzuCysWae+U8gR1O6RWHKGAtXjLNoIrD209IwVOw70DG3lmHoxAwgpdQBpweP5693aGIAOq2DNlNfeaXK/iIfN5yThr66v01x2vWD07zXJ3nzrpy4748HfTsFHES0CDr9Yavb2zG3YcNQNBmgP2Ct/tu9Id+jiQFIC6eI8kqVCx4u4jfPFjPz9VJMBtHozhMCjE24P1aYTYLubbUZDPM3OFuHHQ6Wsm4mtmgMEOIUu0PudPtkwo31QkDvjon/6D1HvDg9AR3tmp1uispbTsqXhqCVPmDzfk83KQmqQU0EDEO10CADbNzr1sQA1DZbR7ol8dufb9fWiCuqhPvfLGNfoQ9Vwsrtbl6cZ6fC0fBcW1zh528fHefRd8tZtUMT/5c66K+BOhxAVdGVVqm7w5rqLAPRhMCQ0mDhRpcmwZ+9EzD9e3ySf82zY00VtM/W8/0mFwvW15ZXN+71cOnjtVPn5Bd6eerGLOrD3CWBIE+AH7a5+fbx1vVemyhoKQiu3+OuGD+gfsNQLQaQUnagps6eXL7VFVkNIyFIxPT/7+UO3l5Y28iTlaZw669tDOxqxOGWfLXGwYdLq2pZ7nYdajgB1LHymhmi0pWcAM+2WTpapes0yVK2YL0rLYwBRkophRAi9ItEzsMhDvH45b5Su5qdcIpIjAD4c4TjR7ZNYe59uVwyykznPD29OxqYeWk6T1xXY8MymwR//U0WcxZWctXfjtXZf6sqbA5z1nR5ZJ1QLilh0UYXuwoSm0lMq2Xgh62uHkCQs3KISMkfyQA1BqDDvgItCBKCOr75jcH0i22cP6RmhfrDRelR079NGBRQEAFMGmlhd4GX5z6tYPtBL3e+XMqnPzjw+iWFZX4efqeMA0drM9YTH5RT5QoMGIdb8sDsMma+Vsq1TxWH/A8SgX4JcIyJhiq3tLo89RuGImWA0MllW7QxALXN1iXEwdJkEPzp6kw27/dyqNjH0B71j6ChPYws2+LCnCJqjWivX/Ln98t5/INyVDWg9Dl7QAqt0nX4VDh41McP29yc/8dCerY3sL/IF4ry9fgkby2oTFikj5aewrsKPIX9OpuCI38kgfzDQBgDSCmtQN/g8cL1znZogETueRUFurXVc6jYF3LvjgZP9Wy9eJOL16fn8MN2F+v21Ez1rTN03H6hjXMG1U0+UeWSvPd9JbMXBDSLoXeLxLqS92hvwGQQmuQc+n6jW9+vc4hRa80A4Z87nGqGkFCSX+jrlHBKCGT6SBQ8Psnu6rX4u3XR6yyoKizYENgd7C7w8tvni5l+sS3k0Dmgq5F372kVcPKMsjO1pAhuOj+N16fnkGOrUSVPn2QjTLhqMgw6oYluBGDRRle4Ma9nde0GoDYDhDijqNSXr1UNvkTt/1UJf3yrnIKSgHzz6jf2WqM6eM0/v6hgx8EagW3bz4EsIZYUhY65ep69JSsmmnqdYuCZW7IwGgRmk2DaGdYT3hPv92iFQ8W+dqpK0KlHEFaNLfzLQwLgml1ezYoiv/t9VUKyZRSV+UMjGwK+fLc8X8yj75Yzb3Ug+fMNTxfz1oLAVjE4us0mQVaaDrtT5d4p6TGnj4WA/eKKMy14feBLcI+9/GVdBk4kDhX79ocdhgZ7YMoPlGwLpRb7dr2zfk1JE3G03M+9b5Ty4u3ZTQq/bpOl49zBqXy71knnPD19OxlZs8vN56scfL6qhn875up57NpMerU3sHGfh0PFPv75eQXd2xkY1oiI5CvHWZmzsJJPVjiYekZiHKW/3+ji9e8Sl6ImGn7Y4fZ0iGIYEgBSyv4ESpkBuEfcdUT1aJwCbtqZFmZMjiyZEx/8Kvx81EfnarnC45PMml3Goo018sC797Ri1Q43L8yrqGVxu26Cld9PbFz497X/KGbbAQ/nDUnl1FOM5GYqnNk3pVEMvbfQx7VPHdO8ZsHArsbtr03PCYb5u4F0IYQ7OP+FGYDU3Vp3PsD7i6v45qemuRroFEKdDwEv4xvPS6t13KOdge/WOeuYW9tmN94ZpX22DlXCV2uc/OOT49z7ehlzl8Qf5GF3qtz9SmlSClZs2ufpLiVBIk1UF+eswwBbDnhKNKemGn9+vzwkxScKPdsbOKt/Ch1a6bnyLAuKEl3w1DXBrSfabuFIaXxqXFXCg2+V19FoagW/ir68St0V1jQKavQAIQZYtMmdtFhtl0cy47Uy3p6Zc8K0rPHg7xHGngenZvDNWgclFSqrd7rZX+TjSBMCMiI7WxGBFDfx4KUv7SzfmtQSgWzY664Y16+WYegpvZSyLRDaJy7bUsuZUHMcKvbx4Jxynr0lS7OETe1ydPzm3MDS4PVLbnuhlFU73Nz66/jTHVY6Vbbs99K/i5HbLrSRlxHQbGZYY2fgRRtdvKGx0BcNC9e7rGEMMFpKKRRgdLDF62f/sWYo1bpiayD2Lhkw6ATXT7Cy9YCnUVk6Pl7uwGQUPH1TFoO7GWmXo4ur8/OP+Hj47bJmKUCxdEsdw1A3hbAA0J+LfIeST1YAb3xrZ+mW5EyJGVYFKeEvHx6PS/V64KiPN76zM7ibMa5OD8LuVJnxanKEvmiocsk0t0fuDWsaWWv/v6PA2ywFjKFaszcnOULRh9UOH9sPenlgdlktHX99KCjxc+fLpVS5ApbDeEewKmFWEoW++lBsV8OF/GEKEIr6PVzia9biD5VJGCGvfG2vpShavMnF9U8Xs7YeLZyqwqcrHVzz1LGQqXjnIS/vL45v2/fSl3ZWJFnoi4ZSuxr+oR31QEgSyknTN7sXZf4RH396r5wnr8tMeGCmqsLr39b2IkpLVahwqNz8XDFd8vSc3tNEmywdbq+koNjP8m2uqPl9n/n0OIO7G2PybVi4oXmEvmjITFPCCc7UAyVU5wEY0M3QImK1569z0ruDgavPTqzBRVFg0kgzH1Vn5rhinIXfX2jDaBBsyPdw35u1FTpCwNQzLEwaaUGnwAtfVNTSMsaC/CM+HnmneYS+aMjNUMKdHA/rHnnkkVFUZwLNsCrWOQsrpc9PszPCj7vc9O9irDe7V2Mx8rQU8jJ0TBxu5opxVnTV6tu8LB1pZoUlm2s6+LwhqfxxWgZZaQoZVoXxA1OpdKoUlqrcMyWdkac2XPDc7lS59fkSipNYPKIh9Otk3Dl5lCU8zuN9BfgkeCQg655LM35MPml1oaoBt+6guTdRUESgEMS4/nU7r3Pr2swWmb9QETBjcjrfPt6aC05v2BlElTBrdlmzC33heOy6jPKIprkKgWLEO4MtE4enDO3e3pBPC8DxKpWZr5XGJKUnApaU2lu7VlF8DGPFi/MqWLEtOXEFseDyMZZV7bL14cWk3hVC7FGEEH7gRgLFhhBCWObMyBFpqUrSysI0hJ2HvPz5vUjG1Qad8/TccI6Vwd2MTBppZkgjM5gu3ODizfmx5yXSGj3aG/bNnJIeXoD6KHAXhIXQSynvAJ4LHhcfV9ee/1DhgOauCxjEnZNsXHVWYoVCLbC/yMc1Tx0LeRI3Nywpwj7/ibxjJoMIqvh9wAQhxGII8wgSQvwf8HrwOCddGfy3GzLrzS+XbDz3WQU/tKApNRoqHCrTq5VFLQGKQP1oVu6OsM4HuDPY+VA3LuB2ICQEjuufesa0cdaVtACoKsx6q4yC4mZXVUSFKuHBOeX1ZiptDjx9c/bS1hm6oWFNbwsh/hl+TS0GEEK4gIuBYAVqcfckW79TOxjCAwybDRUOlRmvlYYigFsSXviiokVo+oKYPCp19Zg+oWqiAOuAWyKvqyPmCiGOAJcScBtCCCxv3d0qNTNNlGpFbDzYVeDlsSQJhbHi+42ukPNpS0CPdvq991+eeRo1Ml4RcJEQoo4LVtR9jhBiJTA9eKxTaP/Bfa33KwotYv79Zq0zruyfWmJfoY+HW5CmL92sK58zM1cnREjF7wUuE0JEtfTWu9EVQrwEvBI8zrYpg565KWt5QqltAlqCUFjhULnzlZYl9H3wQM4eg47wQJDfCyGW1ndPg+aW6oIRC4ExwaZnPqlY+c73lfUmHkwm0i1Ks1QbCeLAUV/CfRqbgn/+LmvJiFNTwtf92UKI6xu654T2turCQ2uA9tVNzhufLd6/Pt8TU2HC/yE5mHqGddnMS22jqenTlcA4IUSD0+QJdZ1CiEJgCtVCIZD68h3Ztqw0JWnew/9Dw+jTybhr5qW2QdR0fiEw5USdDzEWjhRCrAJuDh7rFNHuwwdyD+gUWs6m9xeKdItS9tr07FQgGKbkJdD5MeV3iNnaIYSYA7wQPM60KoP+eWvWiniIPVmx6C95zHtU+1xB8UKn4Pv3g7kHDDoRnsv5d0KImIX1eM1ddwKLgwen90o54+bz01qMuviXhpdub7Ui06oMCGv6pxDitXieERcDCCG8BJRE+4Jtt/wqbeiQ7sZt8Tznf2g6rptgXTGouyFc4v8BuDve58Rt8BZClACTgaBnZcqLt+dkZNuU4nif9T80Dv06G3f8fqJtYFjTQWCSECLuQIdG+VsJIdZLKW8B3gZQFNr+e1bu5gmzimxen0xospue7Q28d28r5q128K8v7dxxkY0RvUykGgW7D/t4+av6HS/OG5LKZWMsdG9nQK/AwWI/X//k4N1FVXVSyigCpp5pYfIoC22zdZRVqixc7+LFLysapK9fZyNXn21lQBcjNrOgvEplzS4Pr31jZ39R4mXkHJty7PXpOTZq6jm6gMlCiKMN3FYvmuR3K6V8hjCV8fo97qU3PlcytinPjESQAdbsctO1jYGj5X627PeQZdNxZr+AW9dNzxWzIb828wf9B0oqVOavd+LySMb0SaFrGz3r8z3c+nwJXn8NE8yamsElo8wUlPhZsN6JlDB+YAolFSpd2uipdEoueLio1jsmjTTzwNQMyuwqS7e4KLX7aZet56wBKfhVuPX5klpp55oKvU7xfvt47rYMixJev/E3Qog36r3pRM9sIk0zCDiUngswsJtp7K0XpC17cZ59TMO3xY+hPUy89o2dl76qKf124TAzj1yVwdVnWdmQX2OrGtTNyFVnWTlU7OOap4o5XhVwyvzXvAqeuSWbUaeZuGa8lde/DbhqD+5u4pJRZnYVeLnh6eKQtfHVb+y8Pj2HtFSFSmdtM0jnPD33XZbOym0uZrxWVmtG6fqdntl3t+LBaelc/uSxhP0Gr/4hc2WGRQkfYM80pfOhETJAOKrdya4AQuFGN56bNnzUaSmbmvLcaDhS6uflsLp/AF/+6MDhlnVSz180PDA7vvpNZajzIZBQ4pn/HEdKuGhEjVPnxGGBgMmXv7LXMjW7PJJ/fRndn3/KGAt6nWDOwirSzIJsmxL6F1gG3HRra2hScclw3HBO2op+nU3hnb8IuKepz22yz7UQolRKeQmwgoAywvDsb7PyLnykqLCw1H/C+vWxYuchb50kD6qEY8f9dSqPBIM11u6uKxvsK/RRXOGnXbaOtFQFu1MNXR8tR8/6PdHli2C9o5fvaDiZao5NF3fugEic3jNly20Xpg0JazoATBVCNFnISIjTvRBio5TyGuBjQCiC3Ln3ttpy7qyizESlm49W0xfA56+bsCFYEiZaRA9AcYVKq3Qd1lSB3Rm43q8SNZO4wy2jOqAEk07c/WppgzkKmyoItsrQHX3hd1nZBLJ6ADgJCH0JWVsSFnUhhPhESvkUMBMgzaz0mT0jZ/m0vxwbfYJbE44As+jItilRR19Otbt3pVOGrm+TpcNmVuowgdkkSDUKIl1Qgu8oLPPXSkOXSOh1iveD+1oVKgr9wpp/I4RYm6h3JDpp/33A18GDHu0Mo++YaKvXFq0VdlZnBB/cve7k0zFXT45NR6svp0IAAAQaSURBVEGJH3v1rBK8flC3ujvYQd2iT2BB6T48X3Gi8cb07FXpFiW88/8uhHg/ke9IKANU16e9EtgTbLt2gnXE2D4pGxP5nhPhs+ro35vOs9bKD6RT4K5LbAgBn62siRD+YnXAU+qWX6WRaqzZGacYRb1ZRD5YUoVfDcQORvNJMJsEEwY1njnuuNi2tHcnQ/huagHwQKMfWA8SG3gHCCHKpJQTgVUQqGH/j5uz2k58+OiRI2W+Nol+XzSs2+PhnUWVXHWWlY9n5bJgvRO3VzKqdwpd8gJ6gDlhPnw/7Xbznx8cTBpp5sNZuSzaENADnNU/laPHa2aKcOQf8fH4++XMmpbBi7dns2qHm52HvOgU6NRaz9AeJn4+5mP+uvgzoQ3vadp87dnW8Cie/cC0RAh9kUg4AwAIIbZLKa8lEHcoFEGrj2a12nH2/YUZ7iSkoAN45j+BFLFTxlq4YJgZvQ4OHvPzwhcVvPN9VS0lEMATc8vZV+hj8mgzl59hocyusqBaE1ifJfCzVQ52HPJy5TgrQ7obGdojUKji2HGVeasdfNuIzm+dri96/ndZudQIfZXARCGEJqp2TUtiSSkfA2YFj/MP+1Zc9uTRBuvZ/5JhNArXgify8i0mESzbKwls9z7U6p3aFK6twUPAvOBB17b6UTMuSb5QeLLgjemt1oR1PsCTWnY+aMwA1ULhFUDIXDxtnHXkuH4pG+q/65eJGZNtS049RR8u9H1HYABpCq1nAIQQduASIBhtrP/7TVkdOuTqDmr97pMFI05L2TTtTOuIsKbdwOXVqnZNoTkDAAghdgLXACoEElG8f2+uI8UoNEtLf7KgXbbu8P/9NqstEFRCVBKw7Scl/CkpDAAghPgc+HPwOMUoer49o9UveikwGoXr/ftzyxURqs4ugeuFEFuTRUPSGKAajxKwFwDQpY1+5P2Xpy9JMg0tBrPvyvnJYhKnhTX9SQjxcb03aICkMkB1wcLrgRCHXzraMvr8oeafkklHS8ADUzMX92xnCLeTfA78Kdl0JHsGQAhRSUAoDK5xuj9fk9GlU67+52TT0lwYPyh13eRRqeGdvwO4unrXlFQknQEAhBC7gMupTlwsIOujWbn6XwITjO2TsvEv12X2pEYLaydg3m3Y+VAjaKoJPBGklA8Aj4eOofTVr+3bXvnaPkqrqmXNBZNBOJ+4PnP1mX1TRlIj8asE4vbnNXCrpmhuBhDABwRiD0Pwq/Lw2l2e3Wt2e/SHSnwpqnpyMkOKUfg75+pcI3qniB5tDX2FILJI0h+FEI81C3HVaPYfVkppBD4CJjY3LUnGP4QQM5qbiGaRAcJRHcxwGfAE1bkK/8tRCtzUEjofWsAMEA4pZTcCGsNfA52BzIbvOCkgCYRr7yJgHn9PK9NuY/D/eWutrXjnXkEAAAAASUVORK5CYII=;" vertex="1" parent="1">
          <mxGeometry x="553.85" y="233.55" width="23.65" height="22.91" as="geometry" />
        </mxCell>
        <mxCell id="pzvto6b-sJFYM6gdtuie-11" value="" style="shape=image;verticalLabelPosition=bottom;labelBackgroundColor=default;verticalAlign=top;aspect=fixed;imageAspect=0;image=data:image/png,iVBORw0KGgoAAAANSUhEUgAAAIAAAAB8CAYAAAChbripAAAABmJLR0QA/wD/AP+gvaeTAAAgAElEQVR4nO2dd3iUVfbHP/edlklmUkkoQTrSq3QQsaCyKmsBFZRVV8SKa8Gyoq5l1XV1VSyLig2sqOtaUFRAuoBIb6EK0kPqTJLp7/39MZnJzGQmmUlmJrg/v8/jI2+5957MPe+9554K/48gpRRSyrOllG9LKQuklFVSyuNSys1SyqeklL2bmsbfkQBIKRUp5UVSyrWyfqyQUl7U1DT/jjhASqmTUv5JSrkjiokPxTop5XgppWjqvyOR+J/846SUqcBkYBpwSshj+6ET7g3Lt9nd+456DOmpiuuUXMV9dl9jtjlV6QEoIe9vAp4CPhFCqImnPrn4n2IAKWUGcCvwFyAv6BmULFhv2/L0x5Y+ZZWezHDt2zbXHHz06uz9vdrpBgGGkMe7gKeB94QQzgSQ3yT4n2AAKWUz4DbgdiAr8JkqKVq00bbt7x+W96uwqenR9JeTrhTdMy5j2zl9jf2EILTNMeAF4CUhRFU86G9K/KYZQErZHLgTmAqkBj7zqBz6dHnFvhlfWAc6XNLYkP4z0hTrveMzNp93mrG7CGEsoAh4BZghhChtSP8nA36TDCClbA/cAUwBUgKfOT38OmeB9cjr860DPCraeIyXZhCVt15kXjf+dNOpikKLkMdW4G3gH0KIo/EYL5n4TTGAlLIXcA8wAYIn1+6UO99cUFH0zvfWIaqKJhHj67TCOekc09op55vzdRrahTx2ALOBvwshDiZi/ETgN8EAUsp+wF+BcYTQbK1Stzz3X4v9qzVVA6RMzt+jCNTLR5rW3P5Hc55BJzqGPHYCc4EnhBA7k0FPY3BSM4CUcgRwH3Bh6LOySnXb4x+UsWSzvUfyKfNCEagXDk5dN21cRmqaQYTSoQLfAI8IIdY1AXlR4aRjgGrFy4XAA8CQkMfqsTLPuodnl5rW7XF2Sz51kTGsW8qW6RMz7C0yNQPDPF4IPCyEWJVsuurDScMAUkoFuAB4BOgf8ti196j7p+mzS1vuPuzqkHTiYsDQboYtD07MtLfI1Ayg9u+7EnhaCPFVE5AWFk3OAFJKPXAlMB04NeSxY9dh94b73y5pe+C4u2XyqWs4erbT73p4YuaJji21Q6CWULoReB6vUqlJtYtNxgBSyjRq1LWtg59RuW6PY91Dc8q6FpZ58sJ28BtBmzzNwelXZv4yoLNhMLW1i1uBZ4APhBDu5FPXBAwgpUwHrgPuh+AztSplyaKN9i1PfWTpU14VXl37W0V+jubIw1dl7hnQ2TCAEKUVsB+vdvE1IYQ9mXQljQGklLnU6OmDJleVnPh+vW3Xkx+V9au0y9Af538K2Wal+N7xGVvP6WvsKwQZIY+PA68CzwkhLMmgJ+EMIKVsC9yFd7kPVdce/HR5xS8vfGkd5HTKlLAd/I8izSAqbr3IvH78SFNXRRC6zfnUzC8KIUoSSUfCGEBK2RGvceZGQvY+h1PueWNBxfHZ31sHx0td+1tFqkGpvO0i07rxp5s6Kwqhgm4F8Bbek8ORRIwfdwaodquaBkwkRPq1O2XBrPkVljmLrAPVJGntfivwqZlvON/USq8R7UMeO4CPgceEEHviOW7cJkFKORyvYHdBaL8+de2Xq6vCKUl+RwB82sV7xmWYUg0iVNnlAj4CnhJC7IjHeI1mgLrUtSfK3Zv+9m65ds1OR5Opa3+rEAJ50eDUn++6JN1oTlV6hjz2qZkfE0KsbdQ4DW0opewOzARGhjzyHCxyr5z+TlmzbQec3RtD3O/w4sw+xq33X5GhNjMroV7LEngfuFsIUdiQvhvEAFLKsXj3pEDhzllwyLXqwXdK2/xy3B26h51U0ChwZm8jYwYa2XbAyacrqrBUnfzufqd11u96eEJmZetcbV+C5+4YcLYQYnusfcbMAFLKkcACQO+7d7jYs/qml4rbHCl2t4q1v2Qi1SA4f4CRSWebaJNbc/hwuiUL1tt563sr+483iUIuJvTpoC946ZYcT4gFshDoF+tpISYGkFIa8XrJdvbdmrOocvmMz8tDt4GTChlpChNHpXH5yDTSU0OdfmugSli8yc47C6xs/9WVRApjhyJQ37orZ2WvdobTA25/JoS4LJZ+YmWAa/G6PwHw5Srb0kc/KD0jlj6SiWyzwvjT05g4Kg2TMfLEh8OmfU7eWVDBsq1J1czGBCGQnz2Yt7pNnnZowO2eQohtUfcRy4BSym+B8wAqHXLbqHuPdk2U+1Vj0CJLw6SzTVwyLBWDrnEHnZ2HXHywuJJv1lahyjgRGEdkm5Xi759sIQRkV996UggxPdr2Uf861WbbMsAI8M9PLKvmLqsYWner5CK/mYaJo0xcOjwVvTa+eqa9R93MWVjB/J+r8Jxk8uIrt+YsHdLV4FuJfxJCDI62bSwMMATwebRUDbvrqGiou3W80amVjj+fa2J0PyNKbCt9zDhc5GH2QitfrbHhdJ8cS0L/joYds+7I8SmNXEBmtDELsejhR/j+UVqh7nS4ZL8Y2iYEHVtqueYcM2MGGlGSpFjOb6bhgSszuemCdN5fXMFHSyuxO5uWETbuc3SREkt1EIsOGAgsjaZtLAwwzD/gXmd5bCTGF/6JH5D4Lz4Sss0KU8emM+ksEx8vr+SDxZVYbU2zN6gSpdii7m6WoZxWfWs4CWAA/36/aKPNHEO7uOFkmPhQZJoUpowxc/VZJj5eVsnshRVNolRav9dZcW5/v0V9eLTtolo4pZSdgN3Vl+qo+49VWCuji7OLB07GiY+EKofky9VVvLOgghPlnqSNe1Yf48ZnJmf1rb4sA3Ki8TeMdgXwc5TDKfdaK9XOdb0cL3RsqWXKGDNn9U3eHt9YpBoEV56RxiXDUvlspZcRiiyJZ4TVBY7OgBvvnGYC3YB69QExM8CuI+6j1GgCE4IWWRquP8/MxUNTT/ovPhIMOsGEUWlcNiKVeWtsvPaNNaGMUOVQ02wOWWA0iK7Vt4YTBQNE+/P6BcAlm20JU/yYjAr3jMvg87/lcenw3+7kB0KvFVw6PJXP/5bH1LHp6BupmKoLOw46Ay2CUckB9f7EUkrfcgLAD5tsbWInLQpCFJj711yuPCMNnSY5632FTWXWfCt3vlbClv2Rcz6oEpyuxh31jHrBtaNNDDw11DM8fli82aELuIwPA+D9+hUAVVL4a6EnNOVKXNCjjZ4WWcnTKh8u8jDx6RO8+o2VZVvt3PJyMQs32mq99/NuB5c+XsgZ9x7j9flWZCOP/IO76Ot/qYH4YaMtMGqqo5QyNJS9FqKRAfycdLjIvQ9qebDGBYO7Ju7LCIePl1dyuLhmT65ySO57s5TTOlXSp4MeIQQ7DjpZtcPhn/TXvrFSaZfceUnDD0CDErgCHCv1NPeo8ohGET6z/FDgv3W1iWYF8DPAmgKHoxH01YnBXZLLAO2ah+f9dXucvPV9BW9+Z+XH7Y5aX/znqxqXFaZTKx3Z5sQJNwdPePYHXNa7DdS5AkgpfWpFABZsdDRrMGV1INUg6N1eV/+LccSgEIZLT1UYM8DIqfk6dFrBvmMuvv7JVussP7Rb4xhVCO8q8O262ttNPLByu8MdwNyNYwCgHzXBHLZN+xwJOf7172RAmyTBz4eM1JrxTu+ZwmOTMkOcRYxMGWNmxucW5i6r9N+dMCqt0WP37ahPGAMsWG9rcdWZfhpPk1Km1mUYqm8t8h//yirVXS63TIgE069j4gSjSNhx0Ovx06udnmcmZ4X1FDLoBPeMy+Ciwd5vQFGgZ9vG09q3Q+L+3m2/OjtJiS+sTAecVtf79TGAfwnZ9IsrYZmwerdPPgN8sNj7Vd99WXqdx04hYOrYdAw6gaqCzdF4PX/HVro6XdMaA1VFKbGqgcEjdW4D9VERYACyN37tCwOtRtCjbfL2f4+K/+jXPFNDr3b1M19OuuLf+9fsbHyOSEUklunX73VYAy4bxgDVqdjyfZcrtto6xYG2WujSWttot61osXW/k4lPn2DWfO/v0yI7er1Dqxzvu6/Pt8bF/p/IbWDhBnvgOXV4dfaVsKhrBagxALnk3vJKNTRRYlyQzOX/r2+XsudIjbevNQazrbXKO+l7jri4/oUijpY0Tq/fN4Fyz4/b7F3wGobAm+CyS6R362IAvwC496g7YQkQk8kAoU6d+wvdHC+rfyJV6dUI+lBw0MXkF4oa5RvYo40u7n6LPlQ5ZarNIfcG3Iq4DUS1AizZYk/YGt0niQwQ+tWpKrz1fUW97eatqar1xRdZVDyehm8Fep2gW5vEyT4FB53HAy6HRXovLANUp3HxR538sNGWEP1/8ywNzRuo/1dV+GpNFfPWVFFije5TvG60qZa94T8rKvlkeWWEFl7N4DOf1vaAG9RF32jLXiKPv0s2OwJ1PBFXgEiKoKFUx/arkqJfjrnbxpE2Pxqz/H/2YyVPzfVOjF4r+NcN2QzrXreWrlMrHV8/1hyAsgqV1QUOZnxh4R8fl7O6wMGEUWn0aqdHqxHsOeLii1VVfLqistZSb9QLbrmw8Q5RiRQEF2+xd7jzUj+NnaWUeeECSCMxgJ9jjpa49wIJUQHXtfwfKnLz5WobZ/RKqXVMLKtQee2bmpOO0y1ZXeColwECkWlSOH+AkYGnGrj+hSKWbLazZHPtKKBss8LNF6Qzun8Keq2gqFwlNUWQZWr8Od5rdKLRFsZwOFzkbqGqHFEUWuF1/RsKfBH6XqS/ws8APxW4EqOzBHq1C78HFhx0cdU/i3jzOyt/fr6IN761UmxRsVSpLNtqZ8qLRbWW/dyMhk1ITrrCA1eE5mryIr+Zhg/uy+XS4amYjQoGnSC/mSYukw9e+0P7CEapeOBgkftAwGXYbaDW6FJKDTDId71gQ1VCvn6dRnBqfngGeOFzCxXVLtZuj2Tm11Zmfm0N+64PVY7YPqOdh1ys3O6gT3sdAzobSDWIWn3cdUkGn/9Yxc7DLoZ0NXDx0NS42yx6d9Cz71hiIpJ/3OZwtc2r2zAUjpX7AKbqfzs27nUmxADUqZU2ohDVpXXs0vE3a23YolTQvPSlhav+eYJXvrJw6yslHCp20zNEI5htVkjRC179xsriTXaemlvOXbPirw1P5ClowUZb84DL06SsnYktHAP4OcVaJXc63DIhhvoedRhVbvyDmZz0YNJS9IJJZ5uYMy2XRU+14MtHmvPwVZl0aOHl8ENFbqbNKqGsov4Twdyllf591+WRzJpv5a5L0jm9ZwptcrV0bKnl/sszmb0w+Ii472j8Q8b7JFAQ3LLf2UlKfH+EgTCGoXAbUI0BaJ8jYQag7nXo/1MNgnP6Gv1m2GbpGl65NZtOrWraZJogPyeVPww08uh7Zcz/2cbqAgdjHj5Ol3wdHlWSm6HhkatDzbzQv7OBldtqBL75P9s4rZOBF270BthKCXMWVfDTzmD/lyEJ8Fpqk6sl06RExbixQlXRlFSqu3NMii+MbzjehNV+hGMAv9Jg0SZ7woI/e9SjBBGi5v//vD4raPIDodMIHrk6k1+Ouyk46MLpkgEOni4+W1nFtaNNQW0uHGQMYgAp4fEPy3h7QQWtcjQcPOEOq+od3j3+uSyF8G4DS7ckJg/Bhj0Oyzl9/dNYSw4I+jSklG2oqbMnV2yzh1bDiAuMekGHFpEZQEpYu8v79Q3paqh3mdRqBDecHz5abfuvta13kYTPQ0VuftrpiKjnNxoSoxBNpDp84QZ74A8zLLQQZqgM4OcQp0f+UmJVcxJBVNdTdHX6/L+zoIK9R72ScbTL7pCuBv+qEYgAKdiPQINQLJi3JjFV4hIpB/y4zX4q4OPoZoSk5A/9dWoMQEfch4GEFGeIJAAu22rnnQUVbNpX89VmpkV35k7RC4z6mqNcz3Z6JoxK46w+wct2kcXDC58H52FunqlhdH8j/TrqyUlXcLgkBwrdrNjqYMV2O2r19jz/Zxt5mRpuvtCMTiMosap8s7aKXYddTDrLROcIK0t96N5Gh04jcDXCthAJlQ5psjvlrhS98E38cMBfyyiUAfwrwPKtiTMAdQ+z/2//1cWdr9XOi1xYHp1wZKlS/ZM/okcKE0elcdesEp74EEb2SqFvBz3llSpzl1X6lUhajeCWC81MGJVWyzI3oLOBy4ansfeomyc+KvMz5eyFFXy2sopss8KhIrdfTbxpn4tPpuc2yMJn0Am6nKJjax3BKY3BrsPOY73bG3wMMAxv/mEgYAuQUpqAXr7rRRts+SQI4axgjgiRN0s2R6eIXBygxr3tIjOvzPM6blQ5JN/+bOMfH5cz82urf/INOsErt2ZzzTmmOietY0str92ew+j+NfKw1aZyoNAdZCM4VORmw56GT2Ai9QGLN0U2DAWur0OoXhEkFO895m6XCGJSDYLWzWrvy93b6EgNI2RtO+Bi/s91M4GlSvV7+aQaBG3ztOwII/wFYvqVmQzoHJ18odMIHrs6k66n1L3ENyaWMZFywA+b7IHGvC7VtRuAYAbwc8bxEvfeRNXg69RKFzbU26ATPDM5m0uHpzJuRBqn90xBU03d3z8sY9HG8MekE+Uebp9Z4pfcHS6JR3qX/Ujo30nPBYNiO+HqdYJ7x4e3GbRupuXJa7MaFffXp0PifAMOFbnzVRWfU48goBpb4KfoFwDX7nIlrChy51aRjR9DuhqCpP6Ne53c8VoJVpvKvW+WMLirgXP7GWmdq6HCJvl5t4MvVlUF6fA9qlfT9+zkbFYXOHjjOysb9wavBlec0TD/1j7t9XRvowtKIjnpbBNTx6b7mbWhaJauIT9HExSuFk8cKnLvb5On9dUjGA58Bb4l3+s06E8t9t0GW3atHuKEVjnRW7/6dtRz56XpPPZ+GQBrChysKag/Ou31+VbGDkllaDcvQz04p5Rvq7cRIWBYt4YrdIZ1T/EzQJfWOv7yx/Swx8+GoEdbPYeLE2N8/bHA4WwTxjDk49te4K9f41i3OzERQAAHCmOzfJ3dJ/JkpaUI8nM0tfZet0fiqk7hJoTXE8iH9FQlrKwRLXzeweCVW+I1+fuOuVmxLXFZSReutwUG9Q6U0mvj8bFEgAFI3e10ydD89HHDl6ur6NdRz9gh0dWGCnc2yDQpPHhlJmf0SkFRoLDMw5Nzy1m+1Y5WI3jgyowgV7OW2TWrjraREeiBS328kkFZbSp3v14Ss0k7Fmz+xdlZSiqFIA2vYag/sKoWA2w94CxOGBXVeOrjcjrn6+hWj1QNUBrGSPL4pKwg75+8TA3PT8lm5XY7LbO91rxA7A2w4pVWqLg8ssFJKI6X1uzRa3Y6OV7qabBfI3g9jh+cXcavJxKbpdyjoi2rVLdkBRuGVikBFwD8sNmR8Dhtp0tyzxvRmW5b52j5Q0AiyCFdDWFdv4TwKoBCJ99SpfLcZzWaP1WFdbsbfl7/KSAyqMKmct3zRXy7ztZgF/FXv7YmdOkPxMZ9jkAV6HAAIaVsBRz23T3/oeOFJ5JUrXNwFwMv35IT1fn5RLmHgyc8dG+jI0Vf/9frdEs+We7N21dsCZ6dc/oZefrPsce5HCh0M/6JwrCTnZ+j4fkbc2oxYF34YZOde98sSYhPYDiMGWBc9/drsnw+AUVAnkJACliXh/3JmnyANTsdvPxVdPURczM09O+kj2ryAR7/oIznPrPUmnyARRttrI9RayclPPeZJeKXfrjYw1cxGIv2HnXzt3dLkzb5AMu21jIMdVIICAD99bj7UPLI8WLOooqwuXkai0NFkc/TUsJ9b5VwMIZ9d2YUS3X7FtF9/VabyrRZiRX6wqHSLs0Op9wXcGtY0Pm/4LAr6fVSpIRH3yuLu2Pk6H61NX2BR7YSq8o1/yqqd1KtNpVH3ivjze9qnFLb5mm5YmQa5/Q1kpbi7bRNrpYxp9WvXVQlTE+C0BcJRVY1UMgfrAX8Ub9Hit1NUvyhyiGZNquEd+/J9f+gjcXlI1MpOOTkSLGHs/oYGd0/hYw0hcWb7Dz9STnllSrllSp/ebWEAZ0NXDDIaw7Oy9RQaZccKnKzdIud//5YRXllzbp/bn8jj16d6XdodbolBQdddGgR2ck1EDPnWYK8kZKNEqvqzK/RZbTVAn6PkWZmbfKS24bgQKGbh98t5dnJ2XFRrmg1gscm1Rb0zjvNSF6mhikvFvnt/D/vdgQFf0ZCboaGhyZmBk20Xiui9uhZtNHO2wvqj0VMJLLMSuDZO0sB/EtC30665GZqCsGSzcn5gfp11Dco1Uski2U02HvUzSPvJVfoC4e8TCXQVfyIAqzxXbVrru2Woo+u0kSiMHOehVU7EpaNzo9IGkGjXkQsMNVQQ42lSuXuJhD6QtG7nX6nXiMCvbw2KsBnvisB2feOy/wp+aTVQJXwwDulCbOKgVfm2Hog2C8wI03hpZtzWPZMS5b+swXv3pNby29hzxFXzP6EXk1faUwnjkTh79dmloXc+kjBW4zY7yM2dkjKwM6tdXtpQliqvMekRJViWbXDUSv37z3jMhjW3eBXSnVvo+PJa7NqySMrtsW2Ov17noWV2xO/otWHK05PW52fow0sJvW+EGKPIoTwAJPxFhtCCJE2Z1ozYTYqTVoWZtdhF49/EMqw8YHJGDyrrbI1nNu/9hGuR1sdZwQ4luh10Qt8AAs32niniYU+gFNb6365Z3xGoIGvELgLAiqGSClvB2b4rovK1XVjHj7Wt6nrAt5xcTqTzjbV/2KMWLrFzodLKiks83D3ZRkMjxBaXmxRefFLC1kmhUuGpYZ1Mw+HvUfdXPuvE02+76elCOuCJ1ucMOj8e78bGC2EWAIhJWOklG8A1/uuF2+yLZn2RumoJNEaFooCM27MiSn2v6lhqVL507NFTb7vKwJ13mPN1zXP1AwMuD1VCPGy/52QNrcBfiHwzD7GMyacaVpFE0JVYfrsUg4VNb0QFQ1UCQ/OKWvyyQd4bkrOspDJfzdw8iGEAYQQduBiwFeBWtx9SXrvbm10u2lCWKpUpr1RGnX4d1Pila+aVtPnw2XDjWtO7+mvJgqwHrgx9L1aB14hxFFgHODwXpM2++5cY5ZZ1I7aSCJ2H3bx8JymV6TUhcWb7LVCypsCp+Zr9/31iqzu1Gzxx4E/CiFqWd3CajyEEKuAO3zXGoXWc+9vvl9RaDJVMXjt5+8vbvofOBx+OebmbyeBpi8jVVM25548jRB+Fb8LuFwIEdbSG9EVQwjxKvC67zonXen//A3ZK+JKbQMw4wsLP54E5+pAWKpU7ny9hEp7086+IlDnPtBsj05DYCDIVCHEsoht6unzNmC572JEz5SRV59p+rGRdDYKJ5tQWJfQN3VsOvMebR6mVWLw4s3Zy3MzNAMCbr0jhHitrjZ1MoAQwgVcDviWD3Hnpen9+nXU72gcqY3DySQUnixC35VnmJYP7ZYyMuDWKuCm+trVq9UQQhyTUo4HluB1Jza+dntO+vkPHi9OVP6AaLD7sIvH3i/jT+dEpyRK0YmIQaAZaYIUveB4aT2enb7m1Xy3Ya/jpBD6erbT77pnXHp/aig8BowXQtS7V0al1hJCrJZSTgFmA2gUkf/xA3nrz5t+LMOjxlSAOir0bKfnxjFm+nTQo1G8vgJvL6hgwfoaIXZU7xSuOcdEh5ZaquySZVvtvPC5Jch5477xGZzW2cArX1m45UIzuRkaDhZ5mPFFzVd73/gMLh/pDRXLb+ZVev6008HNLxf727/+jZUbxpho11zLM59a+HRFJaN6p3DD+WZ+fK5lxPGTgYw0pfSNO3KMgC/ezYV38g/X0cyPqCdPCDFHSjkIuBUgy6T0f/nm7KU3v1JyRj1NY0LfjnpenZrD9l9dPPFRGWUVKp3zdbQM8L0f1TuFZydn88MmO//+2kpehreUe5fWOq55tigo0UKrHA3XnWvikffKOF7m4brRZp6dnMXYRwo5Ue7h3/OsaDQwtFsKk58vAsDhDm7/5/NMPDm33B+AGsv4iYRGwf2fB/MO6DSib8DtW4QQUQvrsX69d+JNIj0KYFDXlDOmjDEvf32+9fQY+4k8wMXpHCn2MGVGMe7qH3JNSLaum/5gZsdBF/e+WaOaOFLi4d+35nBOv5SgcHKDTjB9dimHq51EX/rKwmUjUhnVO4VPllditanYHBJVlWFTxxv1gofmlPpT1gC8eFN21OMnEq/elrsyy6QEfoAvCyHeiKWPmGJaq4XCccAvvns3/sE8cEBn/fZY+omEVIOgR1s989ZU+Sc/FCajQud8HQs3BP/IawoclFWo9O8UbDMoLPP4Jx+8QSlF5WrUVUpLrGrQ5Mc6fqJw7WjTyv6ddYGT/yNwd6z9xBzULIQoBi4DfJ5DKTNva5aZk64UxdpXKDLSFISAE3WkhUmvNuUWh0kRX2xVSU8LFvTCnc3dqoy6TE1oaFqs4ycCvdvrC6aOTe8XcOsgcIkQIuaQpwZFtQshNhCgV1YUWv1net5RnTZ2AgJRXqkipTfWLxIsNu+ENkuvTXqOWcFSmdj9t6nHb5aunHjzjmbp1NRztAOXhUsFHw0anNZACPEe8ILv2pyq9Jp5a/bqhvYHPlctJxcONkZMylxhU9l92MXofsYgb50hXQ1kmhTW74ldS+hyE3Vyp0SMHy20GsU194E8Xwp4H24VQqxtaJ+NzXs+DfjOd9Gvk2HkzReal9fxfr144XMLLbM1vHlHDmMGGBnazcDVZ5mCsn2++o2VLq11PDs5m5E9Uxg3Io0nr81i5yEXCzfErpTZd8xFboaGiwan0qOtrl6nj3iPHy1m/SVrVWaa0ifg1vNCiLciNogCjTrDCyE8UsqJwFqqcwpOPs88ZPM+1+aV2+29G9Lnxr1Opswo5qYLzEyfkAnAr4XuoNo+SzbbmfZGCTecb+afk7OCzuENOYItWG+nX8cqbv9jOlkmhbW7vHqASIj3+NHgz+eaV/ZubwjU9P0A3NvYfuMisUgp++BNQpwGoEoKL3rkuHqsxFNv/frfUT8GdUnZOvO27M54NbEAB4CBQogTje07LqUvhBCbgD9RrSRVBBRXs90AAAYpSURBVHkf3ZdbZNDWr4qMJ5JtfEkGcjM1ha/ckp1DzeTb8Ap9jZ58iBMDAAghPgOe9V2bU5We70xr1mDh5HdUC3335x5TFFoG3L5eCLEuXmPEu4Lx/cB838Wp+boRt49Nj2iL/h114607clZnpCmBstQzQogP4zlGXA05QghVSnkVXsfSTgDXjDYN3bjPuWnZVnufultHhs8o8/b3Vm4YY6ZltobDRR5e+tJSZ579bqfo+PN5Znq21ZGRpnCk2MO8n6qYs6jCHxga2L/PaNQmV1vLaORDz3Z6brnATK/23opf63Y7ePY/lrg7gd5+cfqyHu10gULfQuCBuA5C/FcAhBClwFioqWH/rynZrVpmaRtVfjY/R8NVZ5m4e1YJ5z5wnO/X23h2cnbYxNM+tMrRsPeIi6c/KWfqzBI+XVHJpLNM/OWPtWv+BRqNLvjbcdYUOHh2cha5GTVKqd7t9cz6Sw4aDTz8bikPzi4ly6Tw2tScuBbAHtLFsOWas02BUTz7gQlCiLh7wSSkiL0QYgdwDTVCYe4n03PLDbraTonRIkUveOz9Mn455sZqU3l9vpWtB5xMjlAoArzh2K9+Y2XJZjvrdjv4aGklz39u4dLhabXyEvmMRjsOuiixqrz0lQUpvZY/H+64OJ2DJzzc8nIxizd56wze9u8STEZv0Eg80DxDe/ylW7LzqBH6KoCxQohGq9rDIWFF64QQn0spnwSmAxgNouu703JXXv5UYZ317COhvFJl1+HgwMw1BQ4uGxE57atBJ7j6LBOj+6XQPEtDil6gCG/ugNx0TZD1rz6jUapB0Ku9nte+tgblCbJUqWz+xVldAyFyCdpooNcL+ycP5RYpivCV7ZV4hb4tjeq4DiSuaqEXD+MtQ3chQMdW2uHTLk1f9uxnlpF1N6uNcEkZLTaVbLOCRiFs8qZ7x2Vwdr8UZnxuYechF1UOSd+Oeh6akFkrm0d9RqOMNAVFwJQ/mLn+/GAvJK1GsGFv43P9v3VH7to0gwg0rT8lhPi40R3XgYQyQLVQOBFYDXQHmHCmadi6Pc6Nizfb+9bdOhg56ZpaZVZzMzSUVqhhJ18IOPc0I29+Z+W/P9akPGhoXn5LlddQ9fYCK/PX1t7JGhvJPO2y9KXdTtEGmne/x/sBJRQJkQECIYSwApcCvmhj7TM3ZLdpk6c5GEs/qQYRVLVLo8DZfY0BFcKCoQjvFmCtCp6Ys/o2LFF0pd1bjey0TgZ+LXSz/3jwf8dKGx4yMbR7yuYJo0xDA27tBq6ojtxOKBLOAABCiJ14NYUqeBNRfHhfXlUs2UjKK1UeuDKDi4elMqJHCi/cmEPLbA1vfBu+pKxHhZ93Obh8ZCr5zTSYjQqTzzM3qjDDc59Z6NFGx8ypOZw/wMigLgbGDDDy0IRMLhrcMCEwP0dz5MWbslsBPsIq8Nr2ExMbH4KkMACAEOJL4HHfdYpedHl3Wu7GaNsXWVQe/6CMiaNMPHtDFq1yNNz7ZgnbDkTO2PHI+2UcKfHw0f15fPlIHu1bavnHxw1Pe7Blv5Nrnyui0i65b3wGM27K5uYL09Fqwpenqw96vbB/+Ne8MkX4q7NL4DohxLYGExkjEu++EoDqmnUf43UrA+DTFZVLn5pbXqdjqU9Rc/mTDfJ5OGnxwf25K7rk60YE3HpUCPFIMmlI2goAIISQwHWAn8PHjUgbMWZg6s/JpONkwANXZi0JmfwvgceSTUdSGQBACFGBVyj07XGax/+U2aFdnvbXZNPSVDinv3H9ZcONgZNfAEwSQiQ3qIAkbwGBkFKeC3wD3hQ0qsqR8U8UuvcXuts0FU3JwMieKZuem5LdqbpwA4AVGCKEiItndaxoMgYAkFI+ADzhv4aSWfOt21+fbx2eqKplTQWDTtievC5rzaheKcOokfhVvHH785qKrqZmAAHMBcYH3veo8si6Xc7da3c7tYeK3Smq+ttkhhS98LTP09iH9kgRp7bS9RKC0LpzDwkh/t4kxFWjyX9YKaUe+ASvBfH/E/4lhJjW1EQkXQgMRXUww+XAk1TnKvwfRwlww8kw+XASrACBkFJ2wqsxvABoD8Re1+Xkg8Qbrr0Lb1reDxJl2m0I/g8oKcrJVUm0pAAAAABJRU5ErkJggg==;" vertex="1" parent="1">
          <mxGeometry x="250.26" y="233.45999999999998" width="23.74" height="23" as="geometry" />
        </mxCell>
        <mxCell id="pzvto6b-sJFYM6gdtuie-13" value="" style="shape=image;verticalLabelPosition=bottom;labelBackgroundColor=default;verticalAlign=top;aspect=fixed;imageAspect=0;image=data:image/png,iVBORw0KGgoAAAANSUhEUgAAAOEAAADhCAMAAAAJbSJIAAAAgVBMVEX////lKkrlJkjjCDn62t/nPVnkEz3kGD/xpK3mL0/kH0Pteor1uMDjADf86ez//P32wMb3x830tb3nN1X3yc71u8LqYHT98PLzqrTjADP1tr/vjpvwmKTuiZbqWnDnQ17pTmf74eTrbH740NbjACziACj51trvjJnqX3PugpHxnamIi6cUAAADW0lEQVR4nO3daVfaQBSA4WQGMzAYgnGByKqorf7/H9igp7a2xwwpd5bi+3z1wz2vYQlZJlkGAAAAAAAAAAAAAAAAAJ+qpqv15iyO7Xg48N03ezbaqmisabZTr4HL0uaRKb2d+Au80bH79qze+Qrcmthxb1TjKXGcSGCbWHh5oV40scN+sVsfhSMVu+s32sMn6nUSnzI/qY184U3074kPyjvpwCqpTZjnZi5dOEis0I6lC68SK1Rr6cJpEbvpI3VGIYV/uqAwMAr/oTC1bwsKKfyChcnttVHYG6/S0Cik8CsW8knzPvlosQoP2oZW63x0pLzQ5oDKKNtQlfe7mcCoyYtyH5uNUaiU2Bmh6t55EijCq1QZyfNBziPsEQr1teS4ynVIIXyhGsnOWzk2YvhCu5Cdt3P9R4MfiZI+UzIrUyssRN+G7RvR8Wl6AoXB34euo/rFuey8yrH7FqGwlp0XofCh6PQgXVgWxnw2zLR/Ev52aifW551q6StcpsP5fF7Xt39Pquv2L8Mr4XkAAGBv4CA9bzbpVkkPrB91p0fpCz5tU3ZpLoXnZXXo3xa5Y89bfL/UWSj9+5BC8cLbky88T61Q/JOGQgr7olC+8JpCCnuikML+KKSwLwop7I/C/7/w9Pe8KaSwLwrlC5M7mhj+qD6FPVHo4bxFYzs10ueeusdZm8vOy7LJ2EH6mqiFY95SeB4AAPgSnhx3eBjpxRo3jv3SrfC8bKq7723VwtfqZyPXYq3C89z3W0hf13bp2IZKeF74QsdClBEKhX8fplcofXdelV6h8O81122y4Qul1zF03kMavDDXsguKum7mjlAo+xXsvjk+fGFuBFcUvXJOi1GYm7XQC3W2Kp0rY0QpzG25XgyP9u27OWDJ4jiF7VxrjmYPWpI5VmE4FFJIYXwUUkhhfBRSSGF8FFJIYXwU9pfcKrvi17U9pVa4lS6cJfRcuT355z1lZyk9WE5+BbzWMpmnH77SEisWfzRxLLcZlocXaZY9p7QRSx8PsXSt1RiSfvEQmGUD9/mSQMy9l8D9k0jTSCzEn5v37kkl8F5U5cpbYPteXDSHLHrvMc+WG2/PO34zW2502b3sl0fN5bPnvlfV3c61eJsnd/Jf8wAAAAAAAAAAAAAAAABOyw+CaGxPlkH/oAAAAABJRU5ErkJggg==;" vertex="1" parent="1">
          <mxGeometry x="234" y="66" width="26" height="26" as="geometry" />
        </mxCell>
      </root>
    </mxGraphModel>
  </diagram>
</mxfile>
